# MagicaVoxel @ Ephtracy

# group
o 

# material
mtllib doorV2.mtl
usemtl palette

# normals
vn -1 0 0
vn 1 0 0
vn 0 0 1
vn 0 0 -1
vn 0 -1 0
vn 0 1 0

# texcoords
vt 0.970703 0.5
vt 0.974609 0.5
vt 0.990234 0.5

# verts
v -1 0 -1.8
v -1 0 -2
v -1 3.2 -1.8
v -1 3.2 -2
v -0.7 1.6 -1.7
v -0.7 1.6 -1.9
v -0.7 1.7 -1.7
v -0.7 1.7 -1.9
v 1 0 -1.8
v 1 0 -1.9
v 1 3 -1.8
v 1 3 -1.9
v -0.9 0 -1.8
v -0.9 0 -1.9
v -0.9 3 -1.8
v -0.9 3 -1.9
v -0.6 1.6 -1.8
v -0.6 1.6 -1.9
v -0.6 1.7 -1.8
v -0.6 1.7 -1.9
v -0.4 1.6 -1.7
v -0.4 1.6 -1.8
v -0.4 1.7 -1.7
v -0.4 1.7 -1.8
v 1.1 0 -1.8
v 1.1 0 -2
v 1.1 3.2 -1.8
v 1.1 3.2 -2
v -0.7 1.6 -1.7
v -0.7 1.7 -1.7
v -0.4 1.6 -1.7
v -0.4 1.7 -1.7
v -1 0 -1.8
v -1 3.2 -1.8
v -0.9 0 -1.8
v -0.9 3 -1.8
v 1 0 -1.8
v 1 3 -1.8
v 1.1 0 -1.8
v 1.1 3.2 -1.8
v -0.9 0 -1.9
v -0.9 3 -1.9
v -0.8 0 -1.9
v -0.8 2.9 -1.9
v -0.7 1.6 -1.9
v -0.7 1.7 -1.9
v -0.6 1.6 -1.9
v -0.6 1.7 -1.9
v 0.9 0 -1.9
v 0.9 2.9 -1.9
v 1 0 -1.9
v 1 3 -1.9
v -0.6 1.6 -1.8
v -0.6 1.7 -1.8
v -0.4 1.6 -1.8
v -0.4 1.7 -1.8
v -1 0 -2
v -1 3.2 -2
v -0.9 0 -2
v -0.9 3 -2
v -0.8 0 -2
v -0.8 2.9 -2
v 0.9 0 -2
v 0.9 2.9 -2
v 1 0 -2
v 1 3 -2
v 1.1 0 -2
v 1.1 3.2 -2
v -1 0 -1.8
v -0.9 0 -1.8
v 1 0 -1.8
v 1.1 0 -1.8
v -0.9 0 -1.9
v -0.8 0 -1.9
v 0.9 0 -1.9
v 1 0 -1.9
v -1 0 -2
v -0.9 0 -2
v -0.8 0 -2
v 0.9 0 -2
v 1 0 -2
v 1.1 0 -2
v -0.7 1.6 -1.7
v -0.4 1.6 -1.7
v -0.6 1.6 -1.8
v -0.4 1.6 -1.8
v -0.7 1.6 -1.9
v -0.6 1.6 -1.9
v -0.9 3 -1.8
v 1 3 -1.8
v -0.9 3 -1.9
v 1 3 -1.9
v -0.7 1.7 -1.7
v -0.4 1.7 -1.7
v -0.6 1.7 -1.8
v -0.4 1.7 -1.8
v -0.7 1.7 -1.9
v -0.6 1.7 -1.9
v -1 3.2 -1.8
v 1.1 3.2 -1.8
v -1 3.2 -2
v 1.1 3.2 -2

# faces
f 3/2/1 2/2/1 1/2/1
f 4/2/1 2/2/1 3/2/1
f 7/3/1 6/3/1 5/3/1
f 8/3/1 6/3/1 7/3/1
f 11/2/1 10/2/1 9/2/1
f 12/2/1 10/2/1 11/2/1
f 13/2/2 14/2/2 15/2/2
f 15/2/2 14/2/2 16/2/2
f 17/3/2 18/3/2 19/3/2
f 19/3/2 18/3/2 20/3/2
f 21/3/2 22/3/2 23/3/2
f 23/3/2 22/3/2 24/3/2
f 25/2/2 26/2/2 27/2/2
f 27/2/2 26/2/2 28/2/2
f 31/3/3 30/3/3 29/3/3
f 32/3/3 30/3/3 31/3/3
f 35/2/3 34/2/3 33/2/3
f 36/2/3 34/2/3 35/2/3
f 38/2/3 34/2/3 36/2/3
f 39/2/3 38/2/3 37/2/3
f 40/2/3 34/2/3 38/2/3
f 40/2/3 38/2/3 39/2/3
f 43/1/3 42/1/3 41/1/3
f 44/1/3 42/1/3 43/1/3
f 45/2/3 44/2/3 43/2/3
f 46/2/3 44/2/3 45/2/3
f 47/2/3 45/2/3 43/2/3
f 48/2/3 44/2/3 46/2/3
f 49/2/3 47/2/3 43/2/3
f 49/2/3 48/2/3 47/2/3
f 50/1/3 42/1/3 44/1/3
f 50/2/3 48/2/3 49/2/3
f 50/2/3 44/2/3 48/2/3
f 51/1/3 50/1/3 49/1/3
f 52/1/3 42/1/3 50/1/3
f 52/1/3 50/1/3 51/1/3
f 53/3/4 54/3/4 55/3/4
f 55/3/4 54/3/4 56/3/4
f 57/2/4 58/2/4 59/2/4
f 59/2/4 58/2/4 60/2/4
f 59/1/4 60/1/4 61/1/4
f 61/1/4 60/1/4 62/1/4
f 61/2/4 62/2/4 63/2/4
f 62/1/4 60/1/4 64/1/4
f 63/2/4 62/2/4 64/2/4
f 63/1/4 64/1/4 65/1/4
f 60/2/4 58/2/4 66/2/4
f 65/1/4 64/1/4 66/1/4
f 64/1/4 60/1/4 66/1/4
f 65/2/4 66/2/4 67/2/4
f 66/2/4 58/2/4 68/2/4
f 67/2/4 66/2/4 68/2/4
f 73/2/5 70/2/5 69/2/5
f 76/2/5 72/2/5 71/2/5
f 77/2/5 73/2/5 69/2/5
f 78/1/5 74/1/5 73/1/5
f 78/2/5 73/2/5 77/2/5
f 79/2/5 75/2/5 74/2/5
f 79/1/5 74/1/5 78/1/5
f 80/1/5 76/1/5 75/1/5
f 80/2/5 75/2/5 79/2/5
f 81/2/5 72/2/5 76/2/5
f 81/1/5 76/1/5 80/1/5
f 82/2/5 72/2/5 81/2/5
f 85/3/5 84/3/5 83/3/5
f 86/3/5 84/3/5 85/3/5
f 87/3/5 85/3/5 83/3/5
f 88/3/5 85/3/5 87/3/5
f 91/2/5 90/2/5 89/2/5
f 92/2/5 90/2/5 91/2/5
f 93/3/6 94/3/6 95/3/6
f 95/3/6 94/3/6 96/3/6
f 93/3/6 95/3/6 97/3/6
f 97/3/6 95/3/6 98/3/6
f 99/2/6 100/2/6 101/2/6
f 101/2/6 100/2/6 102/2/6
