# MagicaVoxel @ Ephtracy

# group
o 

# material
mtllib chá.mtl
usemtl palette

# normals
vn -1 0 0
vn 1 0 0
vn 0 0 1
vn 0 0 -1
vn 0 -1 0
vn 0 1 0

# texcoords
vt 0.0761719 0.5
vt 0.162109 0.5
vt 0.373047 0.5
vt 0.724609 0.5
vt 0.857422 0.5
vt 0.990234 0.5

# verts
v -0.8 0.2 0.6
v -0.8 0.2 -0.7
v -0.8 0.4 0.6
v -0.8 0.4 -0.6
v -0.8 0.5 0.6
v -0.8 0.5 -0.6
v -0.8 0.5 -0.7
v -0.3 0.4 0.5
v -0.3 0.4 0.2
v -0.3 0.4 0.0999999
v -0.3 0.4 -0.2
v -0.3 0.4 -0.3
v -0.3 0.4 -0.6
v -0.3 0.5 0.5
v -0.3 0.5 0.2
v -0.3 0.5 0.0999999
v -0.3 0.5 -0.2
v -0.3 0.5 -0.3
v -0.3 0.5 -0.6
v 0.1 0.4 0.5
v 0.1 0.4 0.2
v 0.1 0.4 0.0999999
v 0.1 0.4 -0.2
v 0.1 0.4 -0.3
v 0.1 0.4 -0.6
v 0.1 0.5 0.5
v 0.1 0.5 0.2
v 0.1 0.5 0.0999999
v 0.1 0.5 -0.2
v 0.1 0.5 -0.3
v 0.1 0.5 -0.6
v 0.5 0.4 0.5
v 0.5 0.4 0.2
v 0.5 0.4 0.0999999
v 0.5 0.4 -0.2
v 0.5 0.4 -0.3
v 0.5 0.4 -0.6
v 0.5 0.5 0.5
v 0.5 0.5 0.2
v 0.5 0.5 0.0999999
v 0.5 0.5 -0.2
v 0.5 0.5 -0.3
v 0.5 0.5 -0.6
v 0.8 0.4 0.2
v 0.8 0.4 0.0999999
v 0.8 0.4 -0.2
v 0.8 0.4 -0.3
v 0.8 0.5 0.2
v 0.8 0.5 0.0999999
v 0.8 0.5 -0.2
v 0.8 0.5 -0.3
v -0.7 0.4 0.2
v -0.7 0.4 -0.6
v -0.7 0.5 0.2
v -0.7 0.5 -0.6
v -0.4 0.4 0.5
v -0.4 0.4 0.2
v -0.4 0.5 0.5
v -0.4 0.5 0.2
v 5.96046e-08 0.4 0.5
v 5.96046e-08 0.4 0.2
v 5.96046e-08 0.4 0.0999999
v 5.96046e-08 0.4 -0.2
v 5.96046e-08 0.4 -0.3
v 5.96046e-08 0.4 -0.6
v 5.96046e-08 0.5 0.5
v 5.96046e-08 0.5 0.2
v 5.96046e-08 0.5 0.0999999
v 5.96046e-08 0.5 -0.2
v 5.96046e-08 0.5 -0.3
v 5.96046e-08 0.5 -0.6
v 0.4 0.4 0.5
v 0.4 0.4 0.2
v 0.4 0.4 0.0999999
v 0.4 0.4 -0.2
v 0.4 0.4 -0.3
v 0.4 0.4 -0.6
v 0.4 0.5 0.5
v 0.4 0.5 0.2
v 0.4 0.5 0.0999999
v 0.4 0.5 -0.2
v 0.4 0.5 -0.3
v 0.4 0.5 -0.6
v 0.9 0.2 0.6
v 0.9 0.2 -0.7
v 0.9 0.4 0.6
v 0.9 0.4 -0.7
v 0.9 0.5 0.6
v 0.9 0.5 -0.7
v -0.8 0.2 0.6
v -0.8 0.4 0.6
v -0.8 0.5 0.6
v 0.9 0.2 0.6
v 0.9 0.4 0.6
v 0.9 0.5 0.6
v -0.3 0.4 0.0999999
v -0.3 0.5 0.0999999
v 5.96046e-08 0.4 0.0999999
v 5.96046e-08 0.5 0.0999999
v 0.1 0.4 0.0999999
v 0.1 0.5 0.0999999
v 0.4 0.4 0.0999999
v 0.4 0.5 0.0999999
v 0.5 0.4 0.0999999
v 0.5 0.5 0.0999999
v 0.8 0.4 0.0999999
v 0.8 0.5 0.0999999
v -0.3 0.4 -0.3
v -0.3 0.5 -0.3
v 5.96046e-08 0.4 -0.3
v 5.96046e-08 0.5 -0.3
v 0.1 0.4 -0.3
v 0.1 0.5 -0.3
v 0.4 0.4 -0.3
v 0.4 0.5 -0.3
v 0.5 0.4 -0.3
v 0.5 0.5 -0.3
v 0.8 0.4 -0.3
v 0.8 0.5 -0.3
v -0.7 0.4 -0.6
v -0.7 0.5 -0.6
v -0.3 0.4 -0.6
v -0.3 0.5 -0.6
v 5.96046e-08 0.4 -0.6
v 5.96046e-08 0.5 -0.6
v 0.1 0.4 -0.6
v 0.1 0.5 -0.6
v 0.4 0.4 -0.6
v 0.4 0.5 -0.6
v 0.5 0.4 -0.6
v 0.5 0.5 -0.6
v -0.4 0.4 0.5
v -0.4 0.5 0.5
v -0.3 0.4 0.5
v -0.3 0.5 0.5
v 5.96046e-08 0.4 0.5
v 5.96046e-08 0.5 0.5
v 0.1 0.4 0.5
v 0.1 0.5 0.5
v 0.4 0.4 0.5
v 0.4 0.5 0.5
v 0.5 0.4 0.5
v 0.5 0.5 0.5
v -0.7 0.4 0.2
v -0.7 0.5 0.2
v -0.4 0.4 0.2
v -0.4 0.5 0.2
v -0.3 0.4 0.2
v -0.3 0.5 0.2
v 5.96046e-08 0.4 0.2
v 5.96046e-08 0.5 0.2
v 0.1 0.4 0.2
v 0.1 0.5 0.2
v 0.4 0.4 0.2
v 0.4 0.5 0.2
v 0.5 0.4 0.2
v 0.5 0.5 0.2
v 0.8 0.4 0.2
v 0.8 0.5 0.2
v -0.3 0.4 -0.2
v -0.3 0.5 -0.2
v 5.96046e-08 0.4 -0.2
v 5.96046e-08 0.5 -0.2
v 0.1 0.4 -0.2
v 0.1 0.5 -0.2
v 0.4 0.4 -0.2
v 0.4 0.5 -0.2
v 0.5 0.4 -0.2
v 0.5 0.5 -0.2
v 0.8 0.4 -0.2
v 0.8 0.5 -0.2
v -0.8 0.2 -0.7
v -0.8 0.5 -0.7
v 0.8 0.4 -0.7
v 0.8 0.5 -0.7
v 0.9 0.2 -0.7
v 0.9 0.4 -0.7
v 0.9 0.5 -0.7
v -0.8 0.2 0.6
v 0.9 0.2 0.6
v -0.7 0.2 0.5
v 0.8 0.2 0.5
v -0.7 0.2 -0.6
v 0.8 0.2 -0.6
v -0.8 0.2 -0.7
v 0.9 0.2 -0.7
v -0.4 0.4 0.5
v -0.3 0.4 0.5
v 5.96046e-08 0.4 0.5
v 0.1 0.4 0.5
v 0.4 0.4 0.5
v 0.5 0.4 0.5
v -0.7 0.4 0.2
v -0.4 0.4 0.2
v -0.3 0.4 0.2
v 5.96046e-08 0.4 0.2
v 0.1 0.4 0.2
v 0.4 0.4 0.2
v 0.5 0.4 0.2
v 0.8 0.4 0.2
v -0.3 0.4 0.0999999
v 5.96046e-08 0.4 0.0999999
v 0.1 0.4 0.0999999
v 0.4 0.4 0.0999999
v 0.5 0.4 0.0999999
v 0.8 0.4 0.0999999
v -0.3 0.4 -0.2
v 5.96046e-08 0.4 -0.2
v 0.1 0.4 -0.2
v 0.4 0.4 -0.2
v 0.5 0.4 -0.2
v 0.8 0.4 -0.2
v -0.3 0.4 -0.3
v 5.96046e-08 0.4 -0.3
v 0.1 0.4 -0.3
v 0.4 0.4 -0.3
v 0.5 0.4 -0.3
v 0.8 0.4 -0.3
v -0.7 0.4 -0.6
v -0.3 0.4 -0.6
v 5.96046e-08 0.4 -0.6
v 0.1 0.4 -0.6
v 0.4 0.4 -0.6
v 0.5 0.4 -0.6
v -0.8 0.5 0.6
v 0.9 0.5 0.6
v -0.7 0.5 0.5
v -0.4 0.5 0.5
v -0.3 0.5 0.5
v 5.96046e-08 0.5 0.5
v 0.1 0.5 0.5
v 0.4 0.5 0.5
v 0.5 0.5 0.5
v 0.8 0.5 0.5
v -0.7 0.5 0.2
v -0.4 0.5 0.2
v -0.3 0.5 0.2
v 5.96046e-08 0.5 0.2
v 0.1 0.5 0.2
v 0.4 0.5 0.2
v 0.5 0.5 0.2
v 0.8 0.5 0.2
v -0.3 0.5 0.0999999
v 5.96046e-08 0.5 0.0999999
v 0.1 0.5 0.0999999
v 0.4 0.5 0.0999999
v 0.5 0.5 0.0999999
v 0.8 0.5 0.0999999
v -0.3 0.5 -0.2
v 5.96046e-08 0.5 -0.2
v 0.1 0.5 -0.2
v 0.4 0.5 -0.2
v 0.5 0.5 -0.2
v 0.8 0.5 -0.2
v -0.3 0.5 -0.3
v 5.96046e-08 0.5 -0.3
v 0.1 0.5 -0.3
v 0.4 0.5 -0.3
v 0.5 0.5 -0.3
v 0.8 0.5 -0.3
v -0.8 0.5 -0.6
v -0.7 0.5 -0.6
v -0.3 0.5 -0.6
v 5.96046e-08 0.5 -0.6
v 0.1 0.5 -0.6
v 0.4 0.5 -0.6
v 0.5 0.5 -0.6
v 0.8 0.5 -0.6
v -0.8 0.5 -0.7
v 0.8 0.5 -0.7
v 0.9 0.5 -0.7

# faces
f 3/3/1 2/3/1 1/3/1
f 4/3/1 2/3/1 3/3/1
f 5/6/1 4/6/1 3/6/1
f 6/3/1 2/3/1 4/3/1
f 6/6/1 4/6/1 5/6/1
f 7/3/1 2/3/1 6/3/1
f 14/4/1 9/4/1 8/4/1
f 15/4/1 9/4/1 14/4/1
f 16/4/1 11/4/1 10/4/1
f 17/4/1 11/4/1 16/4/1
f 18/4/1 13/4/1 12/4/1
f 19/4/1 13/4/1 18/4/1
f 26/2/1 21/2/1 20/2/1
f 27/2/1 21/2/1 26/2/1
f 28/2/1 23/2/1 22/2/1
f 29/2/1 23/2/1 28/2/1
f 30/2/1 25/2/1 24/2/1
f 31/2/1 25/2/1 30/2/1
f 38/1/1 33/1/1 32/1/1
f 39/1/1 33/1/1 38/1/1
f 40/1/1 35/1/1 34/1/1
f 41/1/1 35/1/1 40/1/1
f 42/1/1 37/1/1 36/1/1
f 43/1/1 37/1/1 42/1/1
f 48/6/1 45/6/1 44/6/1
f 49/6/1 45/6/1 48/6/1
f 50/6/1 47/6/1 46/6/1
f 51/6/1 47/6/1 50/6/1
f 52/6/2 53/6/2 54/6/2
f 54/6/2 53/6/2 55/6/2
f 56/5/2 57/5/2 58/5/2
f 58/5/2 57/5/2 59/5/2
f 60/4/2 61/4/2 66/4/2
f 66/4/2 61/4/2 67/4/2
f 62/4/2 63/4/2 68/4/2
f 68/4/2 63/4/2 69/4/2
f 64/4/2 65/4/2 70/4/2
f 70/4/2 65/4/2 71/4/2
f 72/2/2 73/2/2 78/2/2
f 78/2/2 73/2/2 79/2/2
f 74/2/2 75/2/2 80/2/2
f 80/2/2 75/2/2 81/2/2
f 76/2/2 77/2/2 82/2/2
f 82/2/2 77/2/2 83/2/2
f 84/3/2 85/3/2 86/3/2
f 86/3/2 85/3/2 87/3/2
f 86/6/2 87/6/2 88/6/2
f 88/6/2 87/6/2 89/6/2
f 93/3/3 91/3/3 90/3/3
f 94/6/3 92/6/3 91/6/3
f 94/3/3 91/3/3 93/3/3
f 95/6/3 92/6/3 94/6/3
f 98/4/3 97/4/3 96/4/3
f 99/4/3 97/4/3 98/4/3
f 102/2/3 101/2/3 100/2/3
f 103/2/3 101/2/3 102/2/3
f 106/1/3 105/1/3 104/1/3
f 107/1/3 105/1/3 106/1/3
f 110/4/3 109/4/3 108/4/3
f 111/4/3 109/4/3 110/4/3
f 114/2/3 113/2/3 112/2/3
f 115/2/3 113/2/3 114/2/3
f 118/1/3 117/1/3 116/1/3
f 119/1/3 117/1/3 118/1/3
f 122/3/3 121/3/3 120/3/3
f 123/3/3 121/3/3 122/3/3
f 126/3/3 125/3/3 124/3/3
f 127/3/3 125/3/3 126/3/3
f 130/3/3 129/3/3 128/3/3
f 131/3/3 129/3/3 130/3/3
f 132/6/4 133/6/4 134/6/4
f 134/6/4 133/6/4 135/6/4
f 136/6/4 137/6/4 138/6/4
f 138/6/4 137/6/4 139/6/4
f 140/6/4 141/6/4 142/6/4
f 142/6/4 141/6/4 143/6/4
f 144/5/4 145/5/4 146/5/4
f 146/5/4 145/5/4 147/5/4
f 148/4/4 149/4/4 150/4/4
f 150/4/4 149/4/4 151/4/4
f 152/2/4 153/2/4 154/2/4
f 154/2/4 153/2/4 155/2/4
f 156/1/4 157/1/4 158/1/4
f 158/1/4 157/1/4 159/1/4
f 160/4/4 161/4/4 162/4/4
f 162/4/4 161/4/4 163/4/4
f 164/2/4 165/2/4 166/2/4
f 166/2/4 165/2/4 167/2/4
f 168/1/4 169/1/4 170/1/4
f 170/1/4 169/1/4 171/1/4
f 172/3/4 173/3/4 174/3/4
f 174/3/4 173/3/4 175/3/4
f 172/3/4 174/3/4 176/3/4
f 174/6/4 175/6/4 177/6/4
f 176/3/4 174/3/4 177/3/4
f 177/6/4 175/6/4 178/6/4
f 181/3/5 180/3/5 179/3/5
f 182/3/5 180/3/5 181/3/5
f 183/3/5 181/3/5 179/3/5
f 183/6/5 182/6/5 181/6/5
f 184/3/5 180/3/5 182/3/5
f 184/6/5 182/6/5 183/6/5
f 185/3/5 183/3/5 179/3/5
f 185/3/5 184/3/5 183/3/5
f 186/3/5 180/3/5 184/3/5
f 186/3/5 184/3/5 185/3/5
f 187/6/6 188/6/6 194/6/6
f 194/6/6 188/6/6 195/6/6
f 189/6/6 190/6/6 196/6/6
f 196/6/6 190/6/6 197/6/6
f 191/6/6 192/6/6 198/6/6
f 198/6/6 192/6/6 199/6/6
f 196/6/6 197/6/6 201/6/6
f 199/6/6 200/6/6 201/6/6
f 198/6/6 199/6/6 201/6/6
f 197/6/6 198/6/6 201/6/6
f 194/6/6 195/6/6 201/6/6
f 195/6/6 196/6/6 201/6/6
f 193/6/6 194/6/6 201/6/6
f 201/6/6 200/6/6 202/6/6
f 202/6/6 200/6/6 203/6/6
f 203/6/6 200/6/6 204/6/6
f 204/6/6 200/6/6 205/6/6
f 205/6/6 200/6/6 206/6/6
f 193/6/6 201/6/6 207/6/6
f 202/6/6 203/6/6 208/6/6
f 208/6/6 203/6/6 209/6/6
f 204/6/6 205/6/6 210/6/6
f 210/6/6 205/6/6 211/6/6
f 208/6/6 209/6/6 213/6/6
f 211/6/6 212/6/6 213/6/6
f 210/6/6 211/6/6 213/6/6
f 209/6/6 210/6/6 213/6/6
f 193/6/6 207/6/6 213/6/6
f 207/6/6 208/6/6 213/6/6
f 213/6/6 212/6/6 214/6/6
f 214/6/6 212/6/6 215/6/6
f 215/6/6 212/6/6 216/6/6
f 216/6/6 212/6/6 217/6/6
f 217/6/6 212/6/6 218/6/6
f 193/6/6 213/6/6 219/6/6
f 219/6/6 213/6/6 220/6/6
f 214/6/6 215/6/6 221/6/6
f 221/6/6 215/6/6 222/6/6
f 216/6/6 217/6/6 223/6/6
f 223/6/6 217/6/6 224/6/6
f 225/6/6 226/6/6 227/6/6
f 227/6/6 226/6/6 228/6/6
f 228/6/6 226/6/6 229/6/6
f 229/6/6 226/6/6 230/6/6
f 230/6/6 226/6/6 231/6/6
f 231/6/6 226/6/6 232/6/6
f 232/6/6 226/6/6 233/6/6
f 233/6/6 226/6/6 234/6/6
f 225/6/6 227/6/6 235/6/6
f 227/5/6 228/5/6 235/5/6
f 235/5/6 228/5/6 236/5/6
f 229/4/6 230/4/6 237/4/6
f 237/4/6 230/4/6 238/4/6
f 231/2/6 232/2/6 239/2/6
f 239/2/6 232/2/6 240/2/6
f 233/1/6 234/1/6 241/1/6
f 234/6/6 226/6/6 242/6/6
f 241/1/6 234/1/6 242/1/6
f 242/6/6 226/6/6 248/6/6
f 243/4/6 244/4/6 249/4/6
f 249/4/6 244/4/6 250/4/6
f 245/2/6 246/2/6 251/2/6
f 251/2/6 246/2/6 252/2/6
f 247/1/6 248/1/6 253/1/6
f 248/6/6 226/6/6 254/6/6
f 253/1/6 248/1/6 254/1/6
f 254/6/6 226/6/6 260/6/6
f 225/6/6 235/6/6 261/6/6
f 261/6/6 235/6/6 262/6/6
f 255/4/6 256/4/6 263/4/6
f 263/4/6 256/4/6 264/4/6
f 257/2/6 258/2/6 265/2/6
f 265/2/6 258/2/6 266/2/6
f 259/1/6 260/1/6 267/1/6
f 260/6/6 226/6/6 268/6/6
f 267/1/6 260/1/6 268/1/6
f 263/3/6 264/3/6 269/3/6
f 265/3/6 266/3/6 269/3/6
f 267/3/6 268/3/6 269/3/6
f 261/3/6 262/3/6 269/3/6
f 264/3/6 265/3/6 269/3/6
f 266/3/6 267/3/6 269/3/6
f 262/3/6 263/3/6 269/3/6
f 268/6/6 226/6/6 270/6/6
f 269/3/6 268/3/6 270/3/6
f 270/6/6 226/6/6 271/6/6
