# MagicaVoxel @ Ephtracy

# group
o 

# material
mtllib gato.mtl
usemtl palette

# normals
vn -1 0 0
vn 1 0 0
vn 0 0 1
vn 0 0 -1
vn 0 -1 0
vn 0 1 0

# texcoords
vt 0.0136719 0.5
vt 0.958984 0.5
vt 0.982422 0.5
vt 0.990234 0.5
vt 0.994141 0.5

# verts
v -1.2 0.5 0.2
v -1.2 0.5 0.0999999
v -1.2 0.6 0.2
v -1.2 0.6 0.0999999
v -1.1 0.1 0.0999999
v -1.1 0.1 -0.2
v -1.1 0.1 -0.6
v -1.1 0.1 -0.9
v -1.1 0.2 -0.2
v -1.1 0.2 -0.6
v -1.1 0.5 0.0999999
v -1.1 0.6 0.0999999
v -1.1 1 0.0999999
v -1.1 1 -5.96046e-08
v -1.1 1 -0.9
v -1.1 1.2 0.0999999
v -1.1 1.2 -5.96046e-08
v -0.8 0.9 -0.9
v -0.8 0.9 -1
v -0.8 1 -0.9
v -0.8 1.1 -0.7
v -0.8 1.1 -0.9
v -0.8 1.2 -0.7
v -0.8 1.2 -1
v -0.4 0.1 0.0999999
v -0.4 0.1 -0.2
v -0.4 0.1 -0.6
v -0.4 0.1 -0.9
v -0.4 0.2 0.0999999
v -0.4 0.2 -5.96046e-08
v -0.4 0.2 -0.2
v -0.4 0.2 -0.6
v -0.4 0.2 -0.9
v -0.4 1 0.0999999
v -0.4 1 -5.96046e-08
v -0.4 1.2 0.0999999
v -0.4 1.2 -5.96046e-08
v -0.2 0.5 0.2
v -0.2 0.5 0.0999999
v -0.2 0.6 0.2
v -0.2 0.6 0.0999999
v -1 0.5 0.2
v -1 0.5 0.0999999
v -1 0.6 0.2
v -1 0.6 0.0999999
v -0.8 0.1 0.0999999
v -0.8 0.1 -0.2
v -0.8 0.1 -0.6
v -0.8 0.1 -0.9
v -0.8 0.2 0.0999999
v -0.8 0.2 -5.96046e-08
v -0.8 0.2 -0.2
v -0.8 0.2 -0.6
v -0.8 0.2 -0.9
v -0.8 1 0.0999999
v -0.8 1 -5.96046e-08
v -0.8 1.2 0.0999999
v -0.8 1.2 -5.96046e-08
v -0.5 0.9 -0.9
v -0.5 0.9 -1
v -0.5 1 -0.9
v -0.5 1.1 -0.7
v -0.5 1.1 -0.9
v -0.5 1.2 -0.7
v -0.5 1.2 -1
v -0.0999999 0.1 0.0999999
v -0.0999999 0.1 -0.2
v -0.0999999 0.1 -0.6
v -0.0999999 0.1 -0.9
v -0.0999999 0.2 -0.2
v -0.0999999 0.2 -0.6
v -0.0999999 0.5 0.0999999
v -0.0999999 0.6 0.0999999
v -0.0999999 1 0.0999999
v -0.0999999 1 -5.96046e-08
v -0.0999999 1 -0.9
v -0.0999999 1.2 0.0999999
v -0.0999999 1.2 -5.96046e-08
v 1.19209e-07 0.5 0.2
v 1.19209e-07 0.5 0.0999999
v 1.19209e-07 0.6 0.2
v 1.19209e-07 0.6 0.0999999
v -1.2 0.5 0.2
v -1.2 0.6 0.2
v -1 0.5 0.2
v -1 0.6 0.2
v -0.2 0.5 0.2
v -0.2 0.6 0.2
v 1.19209e-07 0.5 0.2
v 1.19209e-07 0.6 0.2
v -1.1 0.1 0.0999999
v -1.1 0.5 0.0999999
v -1.1 0.6 0.0999999
v -1.1 1 0.0999999
v -1.1 1.2 0.0999999
v -1 0.5 0.0999999
v -1 0.6 0.0999999
v -1 1 0.0999999
v -1 1.1 0.0999999
v -0.9 0.7 0.0999999
v -0.9 0.9 0.0999999
v -0.9 1 0.0999999
v -0.9 1.1 0.0999999
v -0.8 0.1 0.0999999
v -0.8 0.2 0.0999999
v -0.8 0.3 0.0999999
v -0.8 0.8 0.0999999
v -0.8 0.9 0.0999999
v -0.8 1 0.0999999
v -0.8 1.2 0.0999999
v -0.7 0.5 0.0999999
v -0.7 0.6 0.0999999
v -0.7 0.7 0.0999999
v -0.7 0.8 0.0999999
v -0.7 0.9 0.0999999
v -0.5 0.5 0.0999999
v -0.5 0.6 0.0999999
v -0.5 0.7 0.0999999
v -0.5 0.8 0.0999999
v -0.5 0.9 0.0999999
v -0.4 0.1 0.0999999
v -0.4 0.2 0.0999999
v -0.4 0.3 0.0999999
v -0.4 0.8 0.0999999
v -0.4 0.9 0.0999999
v -0.4 1 0.0999999
v -0.4 1.2 0.0999999
v -0.3 0.7 0.0999999
v -0.3 0.9 0.0999999
v -0.3 1 0.0999999
v -0.3 1.1 0.0999999
v -0.2 0.5 0.0999999
v -0.2 0.6 0.0999999
v -0.2 1 0.0999999
v -0.2 1.1 0.0999999
v -0.0999999 0.1 0.0999999
v -0.0999999 0.5 0.0999999
v -0.0999999 0.6 0.0999999
v -0.0999999 1 0.0999999
v -0.0999999 1.2 0.0999999
v -1.1 0.1 -0.6
v -1.1 0.2 -0.6
v -0.8 0.1 -0.6
v -0.8 0.2 -0.6
v -0.4 0.1 -0.6
v -0.4 0.2 -0.6
v -0.0999999 0.1 -0.6
v -0.0999999 0.2 -0.6
v -0.8 1.1 -0.7
v -0.8 1.2 -0.7
v -0.5 1.1 -0.7
v -0.5 1.2 -0.7
v -0.8 1 -0.9
v -0.8 1.1 -0.9
v -0.5 1 -0.9
v -0.5 1.1 -0.9
v -1.2 0.5 0.0999999
v -1.2 0.6 0.0999999
v -1.1 0.5 0.0999999
v -1.1 0.6 0.0999999
v -0.0999999 0.5 0.0999999
v -0.0999999 0.6 0.0999999
v 1.19209e-07 0.5 0.0999999
v 1.19209e-07 0.6 0.0999999
v -1.1 1 -5.96046e-08
v -1.1 1.2 -5.96046e-08
v -1 1 -5.96046e-08
v -1 1.1 -5.96046e-08
v -0.9 1 -5.96046e-08
v -0.9 1.1 -5.96046e-08
v -0.8 1 -5.96046e-08
v -0.8 1.2 -5.96046e-08
v -0.4 1 -5.96046e-08
v -0.4 1.2 -5.96046e-08
v -0.3 1 -5.96046e-08
v -0.3 1.1 -5.96046e-08
v -0.2 1 -5.96046e-08
v -0.2 1.1 -5.96046e-08
v -0.0999999 1 -5.96046e-08
v -0.0999999 1.2 -5.96046e-08
v -1.1 0.1 -0.2
v -1.1 0.2 -0.2
v -0.8 0.1 -0.2
v -0.8 0.2 -0.2
v -0.4 0.1 -0.2
v -0.4 0.2 -0.2
v -0.0999999 0.1 -0.2
v -0.0999999 0.2 -0.2
v -1.1 0.1 -0.9
v -1.1 1 -0.9
v -0.8 0.1 -0.9
v -0.8 0.2 -0.9
v -0.8 0.9 -0.9
v -0.8 1 -0.9
v -0.5 0.9 -0.9
v -0.5 1 -0.9
v -0.4 0.1 -0.9
v -0.4 0.2 -0.9
v -0.0999999 0.1 -0.9
v -0.0999999 1 -0.9
v -0.8 0.9 -1
v -0.8 1.2 -1
v -0.5 0.9 -1
v -0.5 1.2 -1
v -1.1 0.1 0.0999999
v -0.8 0.1 0.0999999
v -0.4 0.1 0.0999999
v -0.0999999 0.1 0.0999999
v -1.1 0.1 -0.2
v -0.8 0.1 -0.2
v -0.4 0.1 -0.2
v -0.0999999 0.1 -0.2
v -1.1 0.1 -0.6
v -0.8 0.1 -0.6
v -0.4 0.1 -0.6
v -0.0999999 0.1 -0.6
v -1.1 0.1 -0.9
v -0.8 0.1 -0.9
v -0.4 0.1 -0.9
v -0.0999999 0.1 -0.9
v -0.8 0.2 0.0999999
v -0.4 0.2 0.0999999
v -0.8 0.2 -5.96046e-08
v -0.4 0.2 -5.96046e-08
v -1.1 0.2 -0.2
v -0.8 0.2 -0.2
v -0.4 0.2 -0.2
v -0.0999999 0.2 -0.2
v -1.1 0.2 -0.6
v -0.8 0.2 -0.6
v -0.4 0.2 -0.6
v -0.0999999 0.2 -0.6
v -0.8 0.2 -0.9
v -0.4 0.2 -0.9
v -1.2 0.5 0.2
v -1 0.5 0.2
v -0.2 0.5 0.2
v 1.19209e-07 0.5 0.2
v -1.2 0.5 0.0999999
v -1.1 0.5 0.0999999
v -1 0.5 0.0999999
v -0.2 0.5 0.0999999
v -0.0999999 0.5 0.0999999
v 1.19209e-07 0.5 0.0999999
v -0.8 0.9 -0.9
v -0.5 0.9 -0.9
v -0.8 0.9 -1
v -0.5 0.9 -1
v -0.8 1.1 -0.7
v -0.5 1.1 -0.7
v -0.8 1.1 -0.9
v -0.5 1.1 -0.9
v -1.2 0.6 0.2
v -1 0.6 0.2
v -0.2 0.6 0.2
v 1.19209e-07 0.6 0.2
v -1.2 0.6 0.0999999
v -1.1 0.6 0.0999999
v -1 0.6 0.0999999
v -0.2 0.6 0.0999999
v -0.0999999 0.6 0.0999999
v 1.19209e-07 0.6 0.0999999
v -0.8 1 0.0999999
v -0.4 1 0.0999999
v -1.1 1 -5.96046e-08
v -1 1 -5.96046e-08
v -0.9 1 -5.96046e-08
v -0.8 1 -5.96046e-08
v -0.4 1 -5.96046e-08
v -0.3 1 -5.96046e-08
v -0.2 1 -5.96046e-08
v -0.0999999 1 -5.96046e-08
v -1.1 1 -0.9
v -0.8 1 -0.9
v -0.5 1 -0.9
v -0.0999999 1 -0.9
v -1.1 1.2 0.0999999
v -0.8 1.2 0.0999999
v -0.4 1.2 0.0999999
v -0.0999999 1.2 0.0999999
v -1.1 1.2 -5.96046e-08
v -0.8 1.2 -5.96046e-08
v -0.4 1.2 -5.96046e-08
v -0.0999999 1.2 -5.96046e-08
v -0.8 1.2 -0.7
v -0.5 1.2 -0.7
v -0.8 1.2 -1
v -0.5 1.2 -1

# faces
f 3/5/1 2/5/1 1/5/1
f 4/5/1 2/5/1 3/5/1
f 9/5/1 6/5/1 5/5/1
f 10/5/1 8/5/1 7/5/1
f 11/5/1 9/5/1 5/5/1
f 11/5/1 10/5/1 9/5/1
f 12/5/1 10/5/1 11/5/1
f 13/5/1 10/5/1 12/5/1
f 14/5/1 10/5/1 13/5/1
f 15/5/1 8/5/1 10/5/1
f 15/5/1 10/5/1 14/5/1
f 16/4/1 14/4/1 13/4/1
f 17/4/1 14/4/1 16/4/1
f 20/5/1 19/5/1 18/5/1
f 22/5/1 19/5/1 20/5/1
f 23/5/1 22/5/1 21/5/1
f 24/5/1 19/5/1 22/5/1
f 24/5/1 22/5/1 23/5/1
f 29/5/1 26/5/1 25/5/1
f 30/5/1 26/5/1 29/5/1
f 31/5/1 26/5/1 30/5/1
f 32/5/1 28/5/1 27/5/1
f 33/5/1 28/5/1 32/5/1
f 36/4/1 35/4/1 34/4/1
f 37/4/1 35/4/1 36/4/1
f 40/5/1 39/5/1 38/5/1
f 41/5/1 39/5/1 40/5/1
f 42/5/2 43/5/2 44/5/2
f 44/5/2 43/5/2 45/5/2
f 46/5/2 47/5/2 50/5/2
f 50/5/2 47/5/2 51/5/2
f 51/5/2 47/5/2 52/5/2
f 48/5/2 49/5/2 53/5/2
f 53/5/2 49/5/2 54/5/2
f 55/4/2 56/4/2 57/4/2
f 57/4/2 56/4/2 58/4/2
f 59/5/2 60/5/2 61/5/2
f 61/5/2 60/5/2 63/5/2
f 62/5/2 63/5/2 64/5/2
f 63/5/2 60/5/2 65/5/2
f 64/5/2 63/5/2 65/5/2
f 66/5/2 67/5/2 70/5/2
f 68/5/2 69/5/2 71/5/2
f 66/5/2 70/5/2 72/5/2
f 70/5/2 71/5/2 72/5/2
f 72/5/2 71/5/2 73/5/2
f 73/5/2 71/5/2 74/5/2
f 74/5/2 71/5/2 75/5/2
f 71/5/2 69/5/2 76/5/2
f 75/5/2 71/5/2 76/5/2
f 74/4/2 75/4/2 77/4/2
f 77/4/2 75/4/2 78/4/2
f 79/5/2 80/5/2 81/5/2
f 81/5/2 80/5/2 82/5/2
f 85/5/3 84/5/3 83/5/3
f 86/5/3 84/5/3 85/5/3
f 89/5/3 88/5/3 87/5/3
f 90/5/3 88/5/3 89/5/3
f 96/5/3 92/5/3 91/5/3
f 97/5/3 94/5/3 93/5/3
f 98/4/3 95/4/3 94/4/3
f 98/5/3 94/5/3 97/5/3
f 99/4/3 95/4/3 98/4/3
f 100/5/3 97/5/3 96/5/3
f 100/5/3 98/5/3 97/5/3
f 101/5/3 98/5/3 100/5/3
f 102/3/3 99/3/3 98/3/3
f 102/5/3 98/5/3 101/5/3
f 103/4/3 95/4/3 99/4/3
f 103/3/3 99/3/3 102/3/3
f 104/5/3 96/5/3 91/5/3
f 104/5/3 100/5/3 96/5/3
f 105/5/3 100/5/3 104/5/3
f 106/5/3 100/5/3 105/5/3
f 107/1/3 101/1/3 100/1/3
f 108/5/3 102/5/3 101/5/3
f 108/1/3 101/1/3 107/1/3
f 109/4/3 103/4/3 102/4/3
f 109/5/3 102/5/3 108/5/3
f 110/4/3 95/4/3 103/4/3
f 110/4/3 103/4/3 109/4/3
f 111/5/3 100/5/3 106/5/3
f 112/5/3 100/5/3 111/5/3
f 113/1/3 107/1/3 100/1/3
f 113/5/3 100/5/3 112/5/3
f 114/2/3 108/2/3 107/2/3
f 114/1/3 107/1/3 113/1/3
f 115/5/3 109/5/3 108/5/3
f 115/2/3 108/2/3 114/2/3
f 116/4/3 112/4/3 111/4/3
f 116/5/3 111/5/3 106/5/3
f 117/5/3 114/5/3 113/5/3
f 117/4/3 112/4/3 116/4/3
f 117/5/3 113/5/3 112/5/3
f 117/5/3 115/5/3 114/5/3
f 118/5/3 115/5/3 117/5/3
f 119/5/3 115/5/3 118/5/3
f 120/5/3 109/5/3 115/5/3
f 120/5/3 115/5/3 119/5/3
f 122/2/3 106/2/3 105/2/3
f 123/5/3 116/5/3 106/5/3
f 123/5/3 117/5/3 116/5/3
f 123/2/3 106/2/3 122/2/3
f 123/5/3 118/5/3 117/5/3
f 124/1/3 119/1/3 118/1/3
f 124/2/3 120/2/3 119/2/3
f 125/5/3 109/5/3 120/5/3
f 125/2/3 120/2/3 124/2/3
f 126/5/3 109/5/3 125/5/3
f 128/5/3 118/5/3 123/5/3
f 128/5/3 122/5/3 121/5/3
f 128/1/3 124/1/3 118/1/3
f 128/1/3 125/1/3 124/1/3
f 128/5/3 123/5/3 122/5/3
f 129/5/3 126/5/3 125/5/3
f 129/1/3 125/1/3 128/1/3
f 130/4/3 127/4/3 126/4/3
f 130/5/3 126/5/3 129/5/3
f 131/4/3 127/4/3 130/4/3
f 132/5/3 129/5/3 128/5/3
f 132/5/3 128/5/3 121/5/3
f 132/5/3 130/5/3 129/5/3
f 133/5/3 130/5/3 132/5/3
f 134/3/3 131/3/3 130/3/3
f 134/5/3 130/5/3 133/5/3
f 135/4/3 127/4/3 131/4/3
f 135/3/3 131/3/3 134/3/3
f 136/5/3 132/5/3 121/5/3
f 137/5/3 132/5/3 136/5/3
f 138/5/3 134/5/3 133/5/3
f 139/4/3 135/4/3 134/4/3
f 139/5/3 134/5/3 138/5/3
f 140/4/3 127/4/3 135/4/3
f 140/4/3 135/4/3 139/4/3
f 143/5/3 142/5/3 141/5/3
f 144/5/3 142/5/3 143/5/3
f 147/5/3 146/5/3 145/5/3
f 148/5/3 146/5/3 147/5/3
f 151/5/3 150/5/3 149/5/3
f 152/5/3 150/5/3 151/5/3
f 155/5/3 154/5/3 153/5/3
f 156/5/3 154/5/3 155/5/3
f 157/5/4 158/5/4 159/5/4
f 159/5/4 158/5/4 160/5/4
f 161/5/4 162/5/4 163/5/4
f 163/5/4 162/5/4 164/5/4
f 165/4/4 166/4/4 167/4/4
f 167/4/4 166/4/4 168/4/4
f 167/3/4 168/3/4 169/3/4
f 168/4/4 166/4/4 170/4/4
f 169/3/4 168/3/4 170/3/4
f 169/4/4 170/4/4 171/4/4
f 170/4/4 166/4/4 172/4/4
f 171/4/4 170/4/4 172/4/4
f 173/4/4 174/4/4 175/4/4
f 175/4/4 174/4/4 176/4/4
f 175/3/4 176/3/4 177/3/4
f 176/4/4 174/4/4 178/4/4
f 177/3/4 176/3/4 178/3/4
f 177/4/4 178/4/4 179/4/4
f 178/4/4 174/4/4 180/4/4
f 179/4/4 178/4/4 180/4/4
f 181/5/4 182/5/4 183/5/4
f 183/5/4 182/5/4 184/5/4
f 185/5/4 186/5/4 187/5/4
f 187/5/4 186/5/4 188/5/4
f 189/5/4 190/5/4 191/5/4
f 191/5/4 190/5/4 192/5/4
f 192/5/4 190/5/4 193/5/4
f 193/5/4 190/5/4 194/5/4
f 192/5/4 193/5/4 195/5/4
f 192/5/4 195/5/4 198/5/4
f 195/5/4 196/5/4 198/5/4
f 197/5/4 198/5/4 199/5/4
f 198/5/4 196/5/4 200/5/4
f 199/5/4 198/5/4 200/5/4
f 201/5/4 202/5/4 203/5/4
f 203/5/4 202/5/4 204/5/4
f 209/5/5 206/5/5 205/5/5
f 210/5/5 206/5/5 209/5/5
f 211/5/5 208/5/5 207/5/5
f 212/5/5 208/5/5 211/5/5
f 217/5/5 214/5/5 213/5/5
f 218/5/5 214/5/5 217/5/5
f 219/5/5 216/5/5 215/5/5
f 220/5/5 216/5/5 219/5/5
f 223/2/5 222/2/5 221/2/5
f 224/2/5 222/2/5 223/2/5
f 226/5/5 224/5/5 223/5/5
f 227/5/5 224/5/5 226/5/5
f 229/5/5 227/5/5 226/5/5
f 229/5/5 228/5/5 227/5/5
f 229/5/5 226/5/5 225/5/5
f 230/5/5 228/5/5 229/5/5
f 231/5/5 228/5/5 230/5/5
f 232/5/5 228/5/5 231/5/5
f 233/5/5 231/5/5 230/5/5
f 234/5/5 231/5/5 233/5/5
f 239/5/5 236/5/5 235/5/5
f 240/5/5 236/5/5 239/5/5
f 241/5/5 236/5/5 240/5/5
f 242/5/5 238/5/5 237/5/5
f 243/5/5 238/5/5 242/5/5
f 244/5/5 238/5/5 243/5/5
f 247/5/5 246/5/5 245/5/5
f 248/5/5 246/5/5 247/5/5
f 251/5/5 250/5/5 249/5/5
f 252/5/5 250/5/5 251/5/5
f 253/5/6 254/5/6 257/5/6
f 257/5/6 254/5/6 258/5/6
f 258/5/6 254/5/6 259/5/6
f 255/5/6 256/5/6 260/5/6
f 260/5/6 256/5/6 261/5/6
f 261/5/6 256/5/6 262/5/6
f 263/5/6 264/5/6 268/5/6
f 268/5/6 264/5/6 269/5/6
f 266/5/6 267/5/6 273/5/6
f 271/5/6 272/5/6 273/5/6
f 270/5/6 271/5/6 273/5/6
f 269/5/6 270/5/6 273/5/6
f 268/5/6 269/5/6 273/5/6
f 267/5/6 268/5/6 273/5/6
f 265/5/6 266/5/6 273/5/6
f 273/5/6 272/5/6 274/5/6
f 274/5/6 272/5/6 275/5/6
f 275/5/6 272/5/6 276/5/6
f 277/4/6 278/4/6 281/4/6
f 281/4/6 278/4/6 282/4/6
f 279/4/6 280/4/6 283/4/6
f 283/4/6 280/4/6 284/4/6
f 285/5/6 286/5/6 287/5/6
f 287/5/6 286/5/6 288/5/6
