# MagicaVoxel @ Ephtracy

# group
o 

# material
mtllib papeis.mtl
usemtl palette

# normals
vn -1 0 0
vn 1 0 0
vn 0 0 1
vn 0 0 -1
vn 0 -1 0
vn 0 1 0

# texcoords
vt 0.958984 0.5
vt 0.994141 0.5

# verts
v -1.2 0 0.4
v -1.2 0 -0.9
v -1.2 0.1 0.4
v -1.2 0.1 -0.9
v -0.8 0.1 0.4
v -0.8 0.1 0.3
v -0.8 0.1 0.2
v -0.8 0.1 0.1
v -0.8 0.1 0
v -0.8 0.1 -0.1
v -0.8 0.1 -0.2
v -0.8 0.1 -0.3
v -0.8 0.1 -0.4
v -0.8 0.1 -0.5
v -0.8 0.1 -0.6
v -0.8 0.1 -0.7
v -0.8 0.1 -0.9
v -0.8 0.2 0.4
v -0.8 0.2 0.2
v -0.8 0.2 0.1
v -0.8 0.2 -0.1
v -0.8 0.2 -0.2
v -0.8 0.2 -0.3
v -0.8 0.2 -0.4
v -0.8 0.2 -0.5
v -0.8 0.2 -0.6
v -0.8 0.2 -0.9
v -0.7 0.2 0.4
v -0.7 0.2 0.2
v -0.7 0.2 0.1
v -0.7 0.2 -0.1
v -0.7 0.2 -0.2
v -0.7 0.2 -0.3
v -0.7 0.2 -0.4
v -0.7 0.2 -0.5
v -0.7 0.2 -0.6
v -0.7 0.3 0.4
v -0.7 0.3 -0.6
v 1.19209e-07 0 0.4
v 1.19209e-07 0 -0.9
v 1.19209e-07 0.1 -0.7
v 1.19209e-07 0.1 -0.8
v 1.19209e-07 0.2 0.4
v 1.19209e-07 0.2 0.3
v 1.19209e-07 0.2 0.2
v 1.19209e-07 0.2 0.1
v 1.19209e-07 0.2 0
v 1.19209e-07 0.2 -0.1
v 1.19209e-07 0.2 -0.2
v 1.19209e-07 0.2 -0.3
v 1.19209e-07 0.2 -0.4
v 1.19209e-07 0.2 -0.5
v 1.19209e-07 0.2 -0.6
v 1.19209e-07 0.2 -0.7
v 1.19209e-07 0.2 -0.8
v 1.19209e-07 0.2 -0.9
v 1.19209e-07 0.3 0.4
v 1.19209e-07 0.3 0.3
v 1.19209e-07 0.3 0.2
v 1.19209e-07 0.3 0.1
v 1.19209e-07 0.3 0
v 1.19209e-07 0.3 -0.1
v 1.19209e-07 0.3 -0.2
v 1.19209e-07 0.3 -0.3
v 1.19209e-07 0.3 -0.4
v 1.19209e-07 0.3 -0.5
v 1.19209e-07 0.3 -0.6
v -1.2 0 0.4
v -1.2 0.1 0.4
v -0.8 0.1 0.4
v -0.8 0.2 0.4
v -0.7 0.2 0.4
v -0.7 0.3 0.4
v -0.3 0.2 0.4
v -0.3 0.3 0.4
v 1.19209e-07 0 0.4
v 1.19209e-07 0.2 0.4
v 1.19209e-07 0.3 0.4
v -0.7 0.2 -0.6
v -0.7 0.3 -0.6
v 1.19209e-07 0.2 -0.6
v 1.19209e-07 0.3 -0.6
v -1.2 0 -0.9
v -1.2 0.1 -0.9
v -0.8 0.1 -0.9
v -0.8 0.2 -0.9
v 1.19209e-07 0 -0.9
v 1.19209e-07 0.2 -0.9
v -1.2 0 0.4
v 1.19209e-07 0 0.4
v -1 0 0.3
v -0.8 0 0.3
v -1 0 0.2
v -0.8 0 0.2
v -1.1 0 0.1
v -0.8 0 0.1
v -1.1 0 0
v -0.8 0 0
v -1.1 0 -0.2
v -0.8 0 -0.2
v -1.1 0 -0.3
v -0.8 0 -0.3
v -1.1 0 -0.4
v -0.8 0 -0.4
v -1.1 0 -0.5
v -0.8 0 -0.5
v -1.1 0 -0.6
v -0.8 0 -0.6
v -1.1 0 -0.7
v -0.8 0 -0.7
v -1.2 0 -0.9
v 1.19209e-07 0 -0.9
v -1.2 0.1 0.4
v -0.8 0.1 0.4
v -1 0.1 0.3
v -0.8 0.1 0.3
v -1 0.1 0.2
v -0.8 0.1 0.2
v -1.1 0.1 0.1
v -0.8 0.1 0.1
v -1.1 0.1 0
v -0.8 0.1 0
v -0.8 0.1 -0.1
v -1.1 0.1 -0.2
v -0.8 0.1 -0.2
v -1.1 0.1 -0.3
v -0.8 0.1 -0.3
v -1.1 0.1 -0.4
v -0.8 0.1 -0.4
v -1.1 0.1 -0.5
v -0.8 0.1 -0.5
v -1.1 0.1 -0.6
v -0.8 0.1 -0.6
v -1.1 0.1 -0.7
v -0.8 0.1 -0.7
v -1.2 0.1 -0.9
v -0.8 0.1 -0.9
v -0.8 0.2 0.4
v -0.7 0.2 0.4
v -0.8 0.2 0.2
v -0.7 0.2 0.2
v -0.8 0.2 0.1
v -0.7 0.2 0.1
v -0.8 0.2 -0.1
v -0.7 0.2 -0.1
v -0.8 0.2 -0.2
v -0.7 0.2 -0.2
v -0.8 0.2 -0.3
v -0.7 0.2 -0.3
v -0.8 0.2 -0.4
v -0.7 0.2 -0.4
v -0.8 0.2 -0.5
v -0.7 0.2 -0.5
v -0.8 0.2 -0.6
v -0.7 0.2 -0.6
v 1.19209e-07 0.2 -0.6
v -0.7 0.2 -0.7
v 1.19209e-07 0.2 -0.7
v -0.7 0.2 -0.8
v 1.19209e-07 0.2 -0.8
v -0.8 0.2 -0.9
v 1.19209e-07 0.2 -0.9
v -0.7 0.3 0.4
v -0.3 0.3 0.4
v 1.19209e-07 0.3 0.4
v -0.3 0.3 0.3
v 1.19209e-07 0.3 0.3
v -0.4 0.3 0.2
v 1.19209e-07 0.3 0.2
v -0.4 0.3 0.1
v 1.19209e-07 0.3 0.1
v -0.5 0.3 0
v 1.19209e-07 0.3 0
v -0.5 0.3 -0.1
v 1.19209e-07 0.3 -0.1
v -0.4 0.3 -0.2
v 1.19209e-07 0.3 -0.2
v -0.4 0.3 -0.3
v 1.19209e-07 0.3 -0.3
v -0.5 0.3 -0.4
v 1.19209e-07 0.3 -0.4
v -0.5 0.3 -0.5
v 1.19209e-07 0.3 -0.5
v -0.7 0.3 -0.6
v 1.19209e-07 0.3 -0.6

# faces
f 3/1/1 2/1/1 1/1/1
f 4/1/1 2/1/1 3/1/1
f 18/1/1 6/1/1 5/1/1
f 18/1/1 7/1/1 6/1/1
f 19/2/1 8/2/1 7/2/1
f 19/1/1 7/1/1 18/1/1
f 20/1/1 9/1/1 8/1/1
f 20/2/1 8/2/1 19/2/1
f 20/1/1 10/1/1 9/1/1
f 21/2/1 11/2/1 10/2/1
f 21/1/1 10/1/1 20/1/1
f 22/1/1 12/1/1 11/1/1
f 22/2/1 11/2/1 21/2/1
f 23/2/1 13/2/1 12/2/1
f 23/1/1 12/1/1 22/1/1
f 24/1/1 14/1/1 13/1/1
f 24/2/1 13/2/1 23/2/1
f 25/2/1 15/2/1 14/2/1
f 25/1/1 14/1/1 24/1/1
f 26/1/1 17/1/1 16/1/1
f 26/2/1 15/2/1 25/2/1
f 26/1/1 16/1/1 15/1/1
f 27/1/1 17/1/1 26/1/1
f 37/1/1 29/1/1 28/1/1
f 37/1/1 36/1/1 35/1/1
f 37/1/1 35/1/1 34/1/1
f 37/1/1 34/1/1 33/1/1
f 37/1/1 33/1/1 32/1/1
f 37/1/1 32/1/1 31/1/1
f 37/1/1 31/1/1 30/1/1
f 37/1/1 30/1/1 29/1/1
f 38/1/1 36/1/1 37/1/1
f 39/1/2 40/1/2 41/1/2
f 41/1/2 40/1/2 42/1/2
f 39/1/2 41/1/2 43/1/2
f 43/1/2 41/1/2 44/1/2
f 44/1/2 41/1/2 45/1/2
f 45/1/2 41/1/2 46/1/2
f 46/1/2 41/1/2 47/1/2
f 47/1/2 41/1/2 48/1/2
f 48/1/2 41/1/2 49/1/2
f 49/1/2 41/1/2 50/1/2
f 50/1/2 41/1/2 51/1/2
f 51/1/2 41/1/2 52/1/2
f 52/1/2 41/1/2 53/1/2
f 41/2/2 42/2/2 54/2/2
f 53/1/2 41/1/2 54/1/2
f 42/1/2 40/1/2 55/1/2
f 54/2/2 42/2/2 55/2/2
f 55/1/2 40/1/2 56/1/2
f 43/2/2 44/2/2 57/2/2
f 44/1/2 45/1/2 58/1/2
f 57/2/2 44/2/2 58/2/2
f 45/2/2 46/2/2 59/2/2
f 58/1/2 45/1/2 59/1/2
f 46/1/2 47/1/2 60/1/2
f 59/2/2 46/2/2 60/2/2
f 47/2/2 48/2/2 61/2/2
f 60/1/2 47/1/2 61/1/2
f 48/1/2 49/1/2 62/1/2
f 61/2/2 48/2/2 62/2/2
f 49/2/2 50/2/2 63/2/2
f 62/1/2 49/1/2 63/1/2
f 50/1/2 51/1/2 64/1/2
f 63/2/2 50/2/2 64/2/2
f 51/2/2 52/2/2 65/2/2
f 64/1/2 51/1/2 65/1/2
f 52/1/2 53/1/2 66/1/2
f 65/2/2 52/2/2 66/2/2
f 66/1/2 53/1/2 67/1/2
f 70/1/3 69/1/3 68/1/3
f 72/1/3 71/1/3 70/1/3
f 74/1/3 72/1/3 70/1/3
f 74/1/3 73/1/3 72/1/3
f 75/1/3 73/1/3 74/1/3
f 76/1/3 70/1/3 68/1/3
f 76/1/3 74/1/3 70/1/3
f 77/2/3 75/2/3 74/2/3
f 77/1/3 74/1/3 76/1/3
f 78/2/3 75/2/3 77/2/3
f 79/1/4 80/1/4 81/1/4
f 81/1/4 80/1/4 82/1/4
f 83/1/4 84/1/4 85/1/4
f 83/1/4 85/1/4 87/1/4
f 85/1/4 86/1/4 87/1/4
f 87/1/4 86/1/4 88/1/4
f 91/1/5 90/1/5 89/1/5
f 92/1/5 90/1/5 91/1/5
f 93/1/5 91/1/5 89/1/5
f 93/2/5 92/2/5 91/2/5
f 94/1/5 90/1/5 92/1/5
f 94/2/5 92/2/5 93/2/5
f 95/1/5 93/1/5 89/1/5
f 95/1/5 94/1/5 93/1/5
f 96/1/5 90/1/5 94/1/5
f 96/1/5 94/1/5 95/1/5
f 97/1/5 95/1/5 89/1/5
f 97/2/5 96/2/5 95/2/5
f 98/1/5 90/1/5 96/1/5
f 98/2/5 96/2/5 97/2/5
f 99/1/5 97/1/5 89/1/5
f 99/1/5 98/1/5 97/1/5
f 100/1/5 90/1/5 98/1/5
f 100/1/5 98/1/5 99/1/5
f 101/1/5 99/1/5 89/1/5
f 101/2/5 100/2/5 99/2/5
f 102/1/5 90/1/5 100/1/5
f 102/2/5 100/2/5 101/2/5
f 103/1/5 101/1/5 89/1/5
f 103/1/5 102/1/5 101/1/5
f 104/1/5 90/1/5 102/1/5
f 104/1/5 102/1/5 103/1/5
f 105/1/5 103/1/5 89/1/5
f 105/2/5 104/2/5 103/2/5
f 106/1/5 90/1/5 104/1/5
f 106/2/5 104/2/5 105/2/5
f 107/1/5 105/1/5 89/1/5
f 107/1/5 106/1/5 105/1/5
f 108/1/5 90/1/5 106/1/5
f 108/1/5 106/1/5 107/1/5
f 109/1/5 107/1/5 89/1/5
f 109/2/5 108/2/5 107/2/5
f 110/1/5 90/1/5 108/1/5
f 110/2/5 108/2/5 109/2/5
f 111/1/5 109/1/5 89/1/5
f 111/1/5 110/1/5 109/1/5
f 112/1/5 90/1/5 110/1/5
f 112/1/5 110/1/5 111/1/5
f 113/1/6 114/1/6 115/1/6
f 115/1/6 114/1/6 116/1/6
f 113/1/6 115/1/6 117/1/6
f 115/2/6 116/2/6 117/2/6
f 117/2/6 116/2/6 118/2/6
f 113/1/6 117/1/6 119/1/6
f 117/1/6 118/1/6 119/1/6
f 119/1/6 118/1/6 120/1/6
f 113/1/6 119/1/6 121/1/6
f 119/2/6 120/2/6 121/2/6
f 121/2/6 120/2/6 122/2/6
f 121/1/6 122/1/6 123/1/6
f 113/1/6 121/1/6 124/1/6
f 121/1/6 123/1/6 124/1/6
f 124/1/6 123/1/6 125/1/6
f 113/1/6 124/1/6 126/1/6
f 124/2/6 125/2/6 126/2/6
f 126/2/6 125/2/6 127/2/6
f 113/1/6 126/1/6 128/1/6
f 126/1/6 127/1/6 128/1/6
f 128/1/6 127/1/6 129/1/6
f 113/1/6 128/1/6 130/1/6
f 128/2/6 129/2/6 130/2/6
f 130/2/6 129/2/6 131/2/6
f 113/1/6 130/1/6 132/1/6
f 130/1/6 131/1/6 132/1/6
f 132/1/6 131/1/6 133/1/6
f 113/1/6 132/1/6 134/1/6
f 132/2/6 133/2/6 134/2/6
f 134/2/6 133/2/6 135/2/6
f 113/1/6 134/1/6 136/1/6
f 134/1/6 135/1/6 136/1/6
f 136/1/6 135/1/6 137/1/6
f 138/1/6 139/1/6 140/1/6
f 140/1/6 139/1/6 141/1/6
f 140/2/6 141/2/6 142/2/6
f 142/2/6 141/2/6 143/2/6
f 142/1/6 143/1/6 144/1/6
f 144/1/6 143/1/6 145/1/6
f 144/2/6 145/2/6 146/2/6
f 146/2/6 145/2/6 147/2/6
f 146/1/6 147/1/6 148/1/6
f 148/1/6 147/1/6 149/1/6
f 148/2/6 149/2/6 150/2/6
f 150/2/6 149/2/6 151/2/6
f 150/1/6 151/1/6 152/1/6
f 152/1/6 151/1/6 153/1/6
f 152/2/6 153/2/6 154/2/6
f 154/2/6 153/2/6 155/2/6
f 154/1/6 155/1/6 157/1/6
f 155/1/6 156/1/6 157/1/6
f 157/1/6 156/1/6 158/1/6
f 154/1/6 157/1/6 159/1/6
f 157/2/6 158/2/6 159/2/6
f 159/2/6 158/2/6 160/2/6
f 154/1/6 159/1/6 161/1/6
f 159/1/6 160/1/6 161/1/6
f 161/1/6 160/1/6 162/1/6
f 163/1/6 164/1/6 166/1/6
f 164/2/6 165/2/6 166/2/6
f 166/2/6 165/2/6 167/2/6
f 163/1/6 166/1/6 168/1/6
f 166/1/6 167/1/6 168/1/6
f 168/1/6 167/1/6 169/1/6
f 163/1/6 168/1/6 170/1/6
f 168/2/6 169/2/6 170/2/6
f 170/2/6 169/2/6 171/2/6
f 163/1/6 170/1/6 172/1/6
f 170/1/6 171/1/6 172/1/6
f 172/1/6 171/1/6 173/1/6
f 163/1/6 172/1/6 174/1/6
f 172/2/6 173/2/6 174/2/6
f 174/2/6 173/2/6 175/2/6
f 174/1/6 175/1/6 176/1/6
f 176/1/6 175/1/6 177/1/6
f 174/1/6 176/1/6 178/1/6
f 176/2/6 177/2/6 178/2/6
f 178/2/6 177/2/6 179/2/6
f 163/1/6 174/1/6 180/1/6
f 174/1/6 178/1/6 180/1/6
f 178/1/6 179/1/6 180/1/6
f 180/1/6 179/1/6 181/1/6
f 163/1/6 180/1/6 182/1/6
f 180/2/6 181/2/6 182/2/6
f 182/2/6 181/2/6 183/2/6
f 163/1/6 182/1/6 184/1/6
f 182/1/6 183/1/6 184/1/6
f 184/1/6 183/1/6 185/1/6
