# MagicaVoxel @ Ephtracy

# group
o 

# material
mtllib peixeBloco.mtl
usemtl palette

# normals
vn -1 0 0
vn 1 0 0
vn 0 0 1
vn 0 0 -1
vn 0 -1 0
vn 0 1 0

# texcoords
vt 0.0683594 0.5
vt 0.0878906 0.5
vt 0.958984 0.5
vt 0.994141 0.5

# verts
v -1.1 0.3 0.0999999
v -1.1 0.3 -0.2
v -1.1 0.3 -0.3
v -1.1 0.3 -0.4
v -1.1 0.3 -0.5
v -1.1 0.3 -0.6
v -1.1 0.3 -0.7
v -1.1 0.3 -0.9
v -1.1 0.7 -7.45058e-08
v -1.1 0.7 -0.1
v -1.1 0.8 -7.45058e-08
v -1.1 0.8 -0.1
v -1.1 1 0.0999999
v -1.1 1 -0.2
v -1.1 1 -0.3
v -1.1 1 -0.4
v -1.1 1 -0.5
v -1.1 1 -0.6
v -1.1 1 -0.7
v -1.1 1 -0.9
v -0.9 0.4 -1
v -0.9 0.4 -1.2
v -0.9 0.5 -0.9
v -0.9 0.5 -1
v -0.9 0.5 -1.1
v -0.9 0.5 -1.2
v -0.9 0.7 -0.9
v -0.9 0.7 -1
v -0.9 0.7 -1.1
v -0.9 0.7 -1.2
v -0.9 0.8 -1
v -0.9 0.8 -1.2
v -0.9 1 -7.45058e-08
v -0.9 1 -0.2
v -0.9 1 -0.3
v -0.9 1 -0.4
v -0.9 1.1 -7.45058e-08
v -0.9 1.1 -0.2
v -0.9 1.1 -0.4
v -0.9 1.1 -0.6
v -0.9 1.2 -0.2
v -0.9 1.2 -0.6
v -0.8 0.4 -1
v -0.8 0.4 -1.2
v -0.8 0.5 -0.9
v -0.8 0.5 -1
v -0.8 0.5 -1.1
v -0.8 0.5 -1.2
v -0.8 0.7 -0.9
v -0.8 0.7 -1
v -0.8 0.7 -1.1
v -0.8 0.7 -1.2
v -0.8 0.8 -1
v -0.8 0.8 -1.2
v -0.8 1 -7.45058e-08
v -0.8 1 -0.2
v -0.8 1 -0.3
v -0.8 1 -0.4
v -0.8 1.1 -7.45058e-08
v -0.8 1.1 -0.2
v -0.8 1.1 -0.4
v -0.8 1.1 -0.6
v -0.8 1.2 -0.2
v -0.8 1.2 -0.6
v -0.6 0.3 0.0999999
v -0.6 0.3 -0.2
v -0.6 0.3 -0.3
v -0.6 0.3 -0.4
v -0.6 0.3 -0.5
v -0.6 0.3 -0.6
v -0.6 0.3 -0.7
v -0.6 0.3 -0.9
v -0.6 0.5 -0.3
v -0.6 0.5 -0.4
v -0.6 0.5 -0.5
v -0.6 0.6 -0.5
v -0.6 0.6 -0.6
v -0.6 0.7 -7.45058e-08
v -0.6 0.7 -0.1
v -0.6 0.7 -0.3
v -0.6 0.7 -0.4
v -0.6 0.7 -0.5
v -0.6 0.7 -0.6
v -0.6 0.8 -7.45058e-08
v -0.6 0.8 -0.1
v -0.6 1 0.0999999
v -0.6 1 -0.2
v -0.6 1 -0.3
v -0.6 1 -0.4
v -0.6 1 -0.5
v -0.6 1 -0.6
v -0.6 1 -0.7
v -0.6 1 -0.9
v -1.1 0.3 0.0999999
v -1.1 1 0.0999999
v -0.6 0.3 0.0999999
v -0.6 1 0.0999999
v -0.9 1 -7.45058e-08
v -0.9 1.1 -7.45058e-08
v -0.8 1 -7.45058e-08
v -0.8 1.1 -7.45058e-08
v -0.9 1.1 -0.2
v -0.9 1.2 -0.2
v -0.8 1.1 -0.2
v -0.8 1.2 -0.2
v -0.9 0.4 -1
v -0.9 0.5 -1
v -0.9 0.7 -1
v -0.9 0.8 -1
v -0.8 0.4 -1
v -0.8 0.5 -1
v -0.8 0.7 -1
v -0.8 0.8 -1
v -0.9 1 -0.4
v -0.9 1.1 -0.4
v -0.8 1 -0.4
v -0.8 1.1 -0.4
v -0.9 1.1 -0.6
v -0.9 1.2 -0.6
v -0.8 1.1 -0.6
v -0.8 1.2 -0.6
v -1.1 0.3 -0.9
v -1.1 1 -0.9
v -0.9 0.5 -0.9
v -0.9 0.7 -0.9
v -0.8 0.5 -0.9
v -0.8 0.7 -0.9
v -0.6 0.3 -0.9
v -0.6 1 -0.9
v -0.9 0.5 -1.1
v -0.9 0.7 -1.1
v -0.8 0.5 -1.1
v -0.8 0.7 -1.1
v -0.9 0.4 -1.2
v -0.9 0.5 -1.2
v -0.9 0.7 -1.2
v -0.9 0.8 -1.2
v -0.8 0.4 -1.2
v -0.8 0.5 -1.2
v -0.8 0.7 -1.2
v -0.8 0.8 -1.2
v -1.1 0.3 0.0999999
v -0.6 0.3 0.0999999
v -1.1 0.3 -0.2
v -0.6 0.3 -0.2
v -1.1 0.3 -0.3
v -0.6 0.3 -0.3
v -1.1 0.3 -0.4
v -0.6 0.3 -0.4
v -1.1 0.3 -0.5
v -0.6 0.3 -0.5
v -1.1 0.3 -0.6
v -0.6 0.3 -0.6
v -1.1 0.3 -0.7
v -0.6 0.3 -0.7
v -1.1 0.3 -0.9
v -0.6 0.3 -0.9
v -0.9 0.4 -1
v -0.8 0.4 -1
v -0.9 0.4 -1.2
v -0.8 0.4 -1.2
v -0.9 0.5 -0.9
v -0.8 0.5 -0.9
v -0.9 0.5 -1
v -0.8 0.5 -1
v -0.9 0.7 -1.1
v -0.8 0.7 -1.1
v -0.9 0.7 -1.2
v -0.8 0.7 -1.2
v -0.9 1.1 -0.4
v -0.8 1.1 -0.4
v -0.9 1.1 -0.6
v -0.8 1.1 -0.6
v -0.9 0.5 -1.1
v -0.8 0.5 -1.1
v -0.9 0.5 -1.2
v -0.8 0.5 -1.2
v -0.9 0.7 -0.9
v -0.8 0.7 -0.9
v -0.9 0.7 -1
v -0.8 0.7 -1
v -0.9 0.8 -1
v -0.8 0.8 -1
v -0.9 0.8 -1.2
v -0.8 0.8 -1.2
v -1.1 1 0.0999999
v -0.6 1 0.0999999
v -0.9 1 -7.45058e-08
v -0.8 1 -7.45058e-08
v -1.1 1 -0.2
v -0.9 1 -0.2
v -0.8 1 -0.2
v -0.6 1 -0.2
v -1.1 1 -0.3
v -0.9 1 -0.3
v -0.8 1 -0.3
v -0.6 1 -0.3
v -1.1 1 -0.4
v -0.9 1 -0.4
v -0.8 1 -0.4
v -0.6 1 -0.4
v -1.1 1 -0.5
v -0.6 1 -0.5
v -1.1 1 -0.6
v -0.6 1 -0.6
v -1.1 1 -0.7
v -0.6 1 -0.7
v -1.1 1 -0.9
v -0.6 1 -0.9
v -0.9 1.1 -7.45058e-08
v -0.8 1.1 -7.45058e-08
v -0.9 1.1 -0.2
v -0.8 1.1 -0.2
v -0.9 1.2 -0.2
v -0.8 1.2 -0.2
v -0.9 1.2 -0.6
v -0.8 1.2 -0.6

# faces
f 9/1/1 2/1/1 1/1/1
f 10/1/1 2/1/1 9/1/1
f 11/1/1 9/1/1 1/1/1
f 11/4/1 10/4/1 9/4/1
f 12/1/1 2/1/1 10/1/1
f 12/4/1 10/4/1 11/4/1
f 13/1/1 11/1/1 1/1/1
f 13/1/1 12/1/1 11/1/1
f 14/3/1 3/3/1 2/3/1
f 14/1/1 12/1/1 13/1/1
f 14/1/1 2/1/1 12/1/1
f 15/1/1 4/1/1 3/1/1
f 15/3/1 3/3/1 14/3/1
f 16/3/1 5/3/1 4/3/1
f 16/1/1 4/1/1 15/1/1
f 17/1/1 6/1/1 5/1/1
f 17/3/1 5/3/1 16/3/1
f 18/3/1 7/3/1 6/3/1
f 18/1/1 6/1/1 17/1/1
f 19/1/1 8/1/1 7/1/1
f 19/3/1 7/3/1 18/3/1
f 20/1/1 8/1/1 19/1/1
f 24/1/1 22/1/1 21/1/1
f 25/1/1 22/1/1 24/1/1
f 26/1/1 22/1/1 25/1/1
f 27/1/1 24/1/1 23/1/1
f 27/1/1 25/1/1 24/1/1
f 28/1/1 25/1/1 27/1/1
f 29/1/1 25/1/1 28/1/1
f 31/1/1 30/1/1 29/1/1
f 31/1/1 29/1/1 28/1/1
f 32/1/1 30/1/1 31/1/1
f 37/1/1 34/1/1 33/1/1
f 37/1/1 36/1/1 35/1/1
f 37/1/1 35/1/1 34/1/1
f 38/1/1 36/1/1 37/1/1
f 39/1/1 36/1/1 38/1/1
f 41/1/1 40/1/1 39/1/1
f 41/1/1 39/1/1 38/1/1
f 42/1/1 40/1/1 41/1/1
f 43/1/2 44/1/2 46/1/2
f 46/1/2 44/1/2 47/1/2
f 47/1/2 44/1/2 48/1/2
f 45/1/2 46/1/2 49/1/2
f 46/1/2 47/1/2 49/1/2
f 49/1/2 47/1/2 50/1/2
f 50/1/2 47/1/2 51/1/2
f 51/1/2 52/1/2 53/1/2
f 50/1/2 51/1/2 53/1/2
f 53/1/2 52/1/2 54/1/2
f 55/1/2 56/1/2 59/1/2
f 57/1/2 58/1/2 59/1/2
f 56/1/2 57/1/2 59/1/2
f 59/1/2 58/1/2 60/1/2
f 60/1/2 58/1/2 61/1/2
f 61/1/2 62/1/2 63/1/2
f 60/1/2 61/1/2 63/1/2
f 63/1/2 62/1/2 64/1/2
f 66/3/2 67/3/2 73/3/2
f 67/1/2 68/1/2 73/1/2
f 68/3/2 69/3/2 74/3/2
f 73/1/2 68/1/2 74/1/2
f 69/1/2 70/1/2 75/1/2
f 74/3/2 69/3/2 75/3/2
f 73/2/2 74/2/2 76/2/2
f 75/1/2 70/1/2 76/1/2
f 74/2/2 75/2/2 76/2/2
f 70/3/2 71/3/2 77/3/2
f 76/1/2 70/1/2 77/1/2
f 65/1/2 66/1/2 78/1/2
f 78/1/2 66/1/2 79/1/2
f 73/2/2 76/2/2 80/2/2
f 66/3/2 73/3/2 80/3/2
f 76/2/2 77/2/2 80/2/2
f 80/2/2 77/2/2 81/2/2
f 81/2/2 77/2/2 82/2/2
f 77/3/2 71/3/2 83/3/2
f 82/2/2 77/2/2 83/2/2
f 78/4/2 79/4/2 84/4/2
f 65/1/2 78/1/2 84/1/2
f 79/1/2 66/1/2 85/1/2
f 84/4/2 79/4/2 85/4/2
f 65/1/2 84/1/2 86/1/2
f 84/1/2 85/1/2 86/1/2
f 85/1/2 66/1/2 87/1/2
f 86/1/2 85/1/2 87/1/2
f 66/3/2 80/3/2 87/3/2
f 80/1/2 81/1/2 88/1/2
f 87/3/2 80/3/2 88/3/2
f 81/3/2 82/3/2 89/3/2
f 88/1/2 81/1/2 89/1/2
f 82/1/2 83/1/2 90/1/2
f 89/3/2 82/3/2 90/3/2
f 83/3/2 71/3/2 91/3/2
f 90/1/2 83/1/2 91/1/2
f 71/1/2 72/1/2 92/1/2
f 91/3/2 71/3/2 92/3/2
f 92/1/2 72/1/2 93/1/2
f 96/1/3 95/1/3 94/1/3
f 97/1/3 95/1/3 96/1/3
f 100/1/3 99/1/3 98/1/3
f 101/1/3 99/1/3 100/1/3
f 104/1/3 103/1/3 102/1/3
f 105/1/3 103/1/3 104/1/3
f 110/1/3 107/1/3 106/1/3
f 111/1/3 107/1/3 110/1/3
f 112/1/3 109/1/3 108/1/3
f 113/1/3 109/1/3 112/1/3
f 114/1/4 115/1/4 116/1/4
f 116/1/4 115/1/4 117/1/4
f 118/1/4 119/1/4 120/1/4
f 120/1/4 119/1/4 121/1/4
f 122/1/4 123/1/4 124/1/4
f 124/1/4 123/1/4 125/1/4
f 122/1/4 124/1/4 126/1/4
f 125/1/4 123/1/4 127/1/4
f 122/1/4 126/1/4 128/1/4
f 126/1/4 127/1/4 128/1/4
f 127/1/4 123/1/4 129/1/4
f 128/1/4 127/1/4 129/1/4
f 130/1/4 131/1/4 132/1/4
f 132/1/4 131/1/4 133/1/4
f 134/1/4 135/1/4 138/1/4
f 138/1/4 135/1/4 139/1/4
f 136/1/4 137/1/4 140/1/4
f 140/1/4 137/1/4 141/1/4
f 144/1/5 143/1/5 142/1/5
f 145/1/5 143/1/5 144/1/5
f 146/3/5 145/3/5 144/3/5
f 147/3/5 145/3/5 146/3/5
f 148/1/5 147/1/5 146/1/5
f 149/1/5 147/1/5 148/1/5
f 150/3/5 149/3/5 148/3/5
f 151/3/5 149/3/5 150/3/5
f 152/1/5 151/1/5 150/1/5
f 153/1/5 151/1/5 152/1/5
f 154/3/5 153/3/5 152/3/5
f 155/3/5 153/3/5 154/3/5
f 156/1/5 155/1/5 154/1/5
f 157/1/5 155/1/5 156/1/5
f 160/1/5 159/1/5 158/1/5
f 161/1/5 159/1/5 160/1/5
f 164/1/5 163/1/5 162/1/5
f 165/1/5 163/1/5 164/1/5
f 168/1/5 167/1/5 166/1/5
f 169/1/5 167/1/5 168/1/5
f 172/1/5 171/1/5 170/1/5
f 173/1/5 171/1/5 172/1/5
f 174/1/6 175/1/6 176/1/6
f 176/1/6 175/1/6 177/1/6
f 178/1/6 179/1/6 180/1/6
f 180/1/6 179/1/6 181/1/6
f 182/1/6 183/1/6 184/1/6
f 184/1/6 183/1/6 185/1/6
f 186/1/6 187/1/6 188/1/6
f 188/1/6 187/1/6 189/1/6
f 186/1/6 188/1/6 190/1/6
f 190/1/6 188/1/6 191/1/6
f 189/1/6 187/1/6 192/1/6
f 192/1/6 187/1/6 193/1/6
f 190/3/6 191/3/6 194/3/6
f 194/3/6 191/3/6 195/3/6
f 192/3/6 193/3/6 196/3/6
f 196/3/6 193/3/6 197/3/6
f 194/1/6 195/1/6 198/1/6
f 198/1/6 195/1/6 199/1/6
f 196/1/6 197/1/6 200/1/6
f 200/1/6 197/1/6 201/1/6
f 198/3/6 199/3/6 202/3/6
f 199/3/6 200/3/6 202/3/6
f 200/3/6 201/3/6 202/3/6
f 202/3/6 201/3/6 203/3/6
f 202/1/6 203/1/6 204/1/6
f 204/1/6 203/1/6 205/1/6
f 204/3/6 205/3/6 206/3/6
f 206/3/6 205/3/6 207/3/6
f 206/1/6 207/1/6 208/1/6
f 208/1/6 207/1/6 209/1/6
f 210/1/6 211/1/6 212/1/6
f 212/1/6 211/1/6 213/1/6
f 214/1/6 215/1/6 216/1/6
f 216/1/6 215/1/6 217/1/6
