# MagicaVoxel @ Ephtracy

# group
o 

# material
mtllib quadroV1.mtl
usemtl palette

# normals
vn -1 0 0
vn 1 0 0
vn 0 0 1
vn 0 0 -1
vn 0 -1 0
vn 0 1 0

# texcoords
vt 0.958984 0.5
vt 0.974609 0.5
vt 0.994141 0.5

# verts
v -1.2 1.6 -1.8
v -1.2 1.6 -2
v -1.2 3.1 -1.8
v -1.2 3.1 -2
v 1.2 1.7 -1.8
v 1.2 1.7 -1.9
v 1.2 3 -1.8
v 1.2 3 -1.9
v -1.1 1.7 -1.8
v -1.1 1.7 -1.9
v -1.1 3 -1.8
v -1.1 3 -1.9
v 1.3 1.6 -1.8
v 1.3 1.6 -2
v 1.3 3.1 -1.8
v 1.3 3.1 -2
v -1.2 1.6 -1.8
v -1.2 3.1 -1.8
v -1.1 1.7 -1.8
v -1.1 3 -1.8
v 1.2 1.7 -1.8
v 1.2 3 -1.8
v 1.3 1.6 -1.8
v 1.3 3.1 -1.8
v -1.1 1.7 -1.9
v -1.1 3 -1.9
v -1 1.9 -1.9
v -1 2 -1.9
v -1 2.1 -1.9
v -1 2.2 -1.9
v -1 2.3 -1.9
v -1 2.4 -1.9
v -1 2.5 -1.9
v -1 2.6 -1.9
v -1 2.7 -1.9
v -1 2.8 -1.9
v -0.9 2.3 -1.9
v -0.9 2.4 -1.9
v -0.9 2.7 -1.9
v -0.9 2.8 -1.9
v -0.8 2.3 -1.9
v -0.8 2.4 -1.9
v -0.8 2.7 -1.9
v -0.8 2.8 -1.9
v -0.7 1.9 -1.9
v -0.7 2 -1.9
v -0.6 1.9 -1.9
v -0.6 2 -1.9
v -0.5 1.9 -1.9
v -0.5 2 -1.9
v -0.5 2.1 -1.9
v -0.5 2.2 -1.9
v -0.5 2.3 -1.9
v -0.5 2.4 -1.9
v -0.5 2.5 -1.9
v -0.5 2.6 -1.9
v -0.5 2.7 -1.9
v -0.5 2.8 -1.9
v -0.3 2.5 -1.9
v -0.3 2.7 -1.9
v -0.2 1.9 -1.9
v -0.2 2 -1.9
v -0.2 2.1 -1.9
v -0.2 2.3 -1.9
v -0.2 2.5 -1.9
v -0.2 2.7 -1.9
v -0.2 2.8 -1.9
v -0.0999999 1.9 -1.9
v -0.0999999 2 -1.9
v -0.0999999 2.1 -1.9
v -0.0999999 2.3 -1.9
v -0.0999999 2.4 -1.9
v 1.19209e-07 2.3 -1.9
v 1.19209e-07 2.4 -1.9
v 1.19209e-07 2.7 -1.9
v 1.19209e-07 2.8 -1.9
v 0.1 2.4 -1.9
v 0.1 2.7 -1.9
v 0.4 1.8 -1.9
v 0.4 2 -1.9
v 0.4 2.1 -1.9
v 0.4 2.2 -1.9
v 0.4 2.3 -1.9
v 0.4 2.4 -1.9
v 0.4 2.5 -1.9
v 0.4 2.6 -1.9
v 0.4 2.7 -1.9
v 0.4 2.9 -1.9
v 0.5 1.8 -1.9
v 0.5 2 -1.9
v 0.5 2.1 -1.9
v 0.5 2.2 -1.9
v 0.5 2.3 -1.9
v 0.5 2.4 -1.9
v 0.5 2.5 -1.9
v 0.5 2.6 -1.9
v 0.5 2.7 -1.9
v 0.5 2.9 -1.9
v 0.7 1.8 -1.9
v 0.7 2 -1.9
v 0.7 2.1 -1.9
v 0.7 2.2 -1.9
v 0.7 2.3 -1.9
v 0.7 2.4 -1.9
v 0.7 2.5 -1.9
v 0.7 2.6 -1.9
v 0.7 2.7 -1.9
v 0.7 2.9 -1.9
v 0.8 1.8 -1.9
v 0.8 2 -1.9
v 0.8 2.1 -1.9
v 0.8 2.2 -1.9
v 0.8 2.3 -1.9
v 0.8 2.4 -1.9
v 0.8 2.5 -1.9
v 0.8 2.6 -1.9
v 0.8 2.7 -1.9
v 0.8 2.9 -1.9
v 1.2 1.7 -1.9
v 1.2 3 -1.9
v -1.2 1.6 -2
v -1.2 3.1 -2
v -1.1 1.7 -2
v -1.1 3 -2
v -1 1.9 -2
v -1 2 -2
v -1 2.1 -2
v -1 2.2 -2
v -1 2.3 -2
v -1 2.4 -2
v -1 2.5 -2
v -1 2.6 -2
v -1 2.7 -2
v -1 2.8 -2
v -0.9 2.3 -2
v -0.9 2.4 -2
v -0.9 2.7 -2
v -0.9 2.8 -2
v -0.8 2.3 -2
v -0.8 2.4 -2
v -0.8 2.7 -2
v -0.8 2.8 -2
v -0.7 1.9 -2
v -0.7 2 -2
v -0.6 1.9 -2
v -0.6 2 -2
v -0.5 1.9 -2
v -0.5 2 -2
v -0.5 2.1 -2
v -0.5 2.2 -2
v -0.5 2.3 -2
v -0.5 2.4 -2
v -0.5 2.5 -2
v -0.5 2.6 -2
v -0.5 2.7 -2
v -0.5 2.8 -2
v -0.3 2.5 -2
v -0.3 2.7 -2
v -0.2 1.9 -2
v -0.2 2 -2
v -0.2 2.1 -2
v -0.2 2.3 -2
v -0.2 2.5 -2
v -0.2 2.7 -2
v -0.2 2.8 -2
v -0.0999999 1.9 -2
v -0.0999999 2 -2
v -0.0999999 2.1 -2
v -0.0999999 2.3 -2
v -0.0999999 2.4 -2
v 1.19209e-07 2.3 -2
v 1.19209e-07 2.4 -2
v 1.19209e-07 2.7 -2
v 1.19209e-07 2.8 -2
v 0.1 2.4 -2
v 0.1 2.7 -2
v 0.4 1.8 -2
v 0.4 2 -2
v 0.4 2.1 -2
v 0.4 2.2 -2
v 0.4 2.3 -2
v 0.4 2.4 -2
v 0.4 2.5 -2
v 0.4 2.6 -2
v 0.4 2.7 -2
v 0.4 2.9 -2
v 0.5 1.8 -2
v 0.5 2 -2
v 0.5 2.1 -2
v 0.5 2.2 -2
v 0.5 2.3 -2
v 0.5 2.4 -2
v 0.5 2.5 -2
v 0.5 2.6 -2
v 0.5 2.7 -2
v 0.5 2.9 -2
v 0.7 1.8 -2
v 0.7 2 -2
v 0.7 2.1 -2
v 0.7 2.2 -2
v 0.7 2.3 -2
v 0.7 2.4 -2
v 0.7 2.5 -2
v 0.7 2.6 -2
v 0.7 2.7 -2
v 0.7 2.9 -2
v 0.8 1.8 -2
v 0.8 2 -2
v 0.8 2.1 -2
v 0.8 2.2 -2
v 0.8 2.3 -2
v 0.8 2.4 -2
v 0.8 2.5 -2
v 0.8 2.6 -2
v 0.8 2.7 -2
v 0.8 2.9 -2
v 1.2 1.7 -2
v 1.2 3 -2
v 1.3 1.6 -2
v 1.3 3.1 -2
v -1.2 1.6 -1.8
v 1.3 1.6 -1.8
v -1.2 1.6 -2
v 1.3 1.6 -2
v -1.1 3 -1.8
v 1.2 3 -1.8
v -1.1 3 -1.9
v 1.2 3 -1.9
v -1.1 1.7 -1.8
v 1.2 1.7 -1.8
v -1.1 1.7 -1.9
v 1.2 1.7 -1.9
v -1.2 3.1 -1.8
v 1.3 3.1 -1.8
v -1.2 3.1 -2
v 1.3 3.1 -2

# faces
f 3/2/1 2/2/1 1/2/1
f 4/2/1 2/2/1 3/2/1
f 7/2/1 6/2/1 5/2/1
f 8/2/1 6/2/1 7/2/1
f 9/2/2 10/2/2 11/2/2
f 11/2/2 10/2/2 12/2/2
f 13/2/2 14/2/2 15/2/2
f 15/2/2 14/2/2 16/2/2
f 19/2/3 18/2/3 17/2/3
f 20/2/3 18/2/3 19/2/3
f 21/2/3 19/2/3 17/2/3
f 22/2/3 18/2/3 20/2/3
f 23/2/3 21/2/3 17/2/3
f 23/2/3 22/2/3 21/2/3
f 24/2/3 18/2/3 22/2/3
f 24/2/3 22/2/3 23/2/3
f 27/1/3 26/1/3 25/1/3
f 28/1/3 26/1/3 27/1/3
f 29/1/3 26/1/3 28/1/3
f 30/1/3 26/1/3 29/1/3
f 31/1/3 26/1/3 30/1/3
f 32/1/3 26/1/3 31/1/3
f 33/1/3 26/1/3 32/1/3
f 34/1/3 26/1/3 33/1/3
f 35/1/3 26/1/3 34/1/3
f 36/1/3 26/1/3 35/1/3
f 37/1/3 31/1/3 30/1/3
f 37/3/3 32/3/3 31/3/3
f 38/1/3 33/1/3 32/1/3
f 38/3/3 32/3/3 37/3/3
f 39/3/3 36/3/3 35/3/3
f 39/1/3 35/1/3 34/1/3
f 40/1/3 26/1/3 36/1/3
f 40/3/3 36/3/3 39/3/3
f 41/1/3 37/1/3 30/1/3
f 41/1/3 38/1/3 37/1/3
f 42/1/3 33/1/3 38/1/3
f 42/1/3 38/1/3 41/1/3
f 43/1/3 39/1/3 34/1/3
f 43/1/3 40/1/3 39/1/3
f 44/1/3 26/1/3 40/1/3
f 44/1/3 40/1/3 43/1/3
f 45/1/3 27/1/3 25/1/3
f 45/3/3 28/3/3 27/3/3
f 46/1/3 29/1/3 28/1/3
f 46/3/3 28/3/3 45/3/3
f 47/1/3 45/1/3 25/1/3
f 47/1/3 46/1/3 45/1/3
f 48/1/3 29/1/3 46/1/3
f 48/1/3 46/1/3 47/1/3
f 49/1/3 47/1/3 25/1/3
f 49/3/3 48/3/3 47/3/3
f 50/1/3 29/1/3 48/1/3
f 50/3/3 48/3/3 49/3/3
f 51/3/3 30/3/3 29/3/3
f 51/1/3 29/1/3 50/1/3
f 52/1/3 41/1/3 30/1/3
f 52/3/3 30/3/3 51/3/3
f 53/3/3 42/3/3 41/3/3
f 53/1/3 41/1/3 52/1/3
f 54/1/3 33/1/3 42/1/3
f 54/3/3 42/3/3 53/3/3
f 55/3/3 34/3/3 33/3/3
f 55/1/3 33/1/3 54/1/3
f 56/1/3 43/1/3 34/1/3
f 56/3/3 34/3/3 55/3/3
f 57/3/3 44/3/3 43/3/3
f 57/1/3 43/1/3 56/1/3
f 58/1/3 26/1/3 44/1/3
f 58/3/3 44/3/3 57/3/3
f 59/1/3 57/1/3 56/1/3
f 59/1/3 56/1/3 55/1/3
f 59/1/3 58/1/3 57/1/3
f 59/1/3 52/1/3 51/1/3
f 59/1/3 54/1/3 53/1/3
f 59/1/3 55/1/3 54/1/3
f 59/1/3 51/1/3 50/1/3
f 59/1/3 53/1/3 52/1/3
f 59/1/3 50/1/3 49/1/3
f 60/1/3 58/1/3 59/1/3
f 61/1/3 49/1/3 25/1/3
f 61/1/3 59/1/3 49/1/3
f 62/1/3 59/1/3 61/1/3
f 63/1/3 59/1/3 62/1/3
f 64/1/3 59/1/3 63/1/3
f 65/3/3 60/3/3 59/3/3
f 65/1/3 59/1/3 64/1/3
f 66/1/3 58/1/3 60/1/3
f 66/3/3 60/3/3 65/3/3
f 67/1/3 26/1/3 58/1/3
f 67/1/3 58/1/3 66/1/3
f 68/1/3 61/1/3 25/1/3
f 68/3/3 62/3/3 61/3/3
f 69/1/3 63/1/3 62/1/3
f 69/3/3 62/3/3 68/3/3
f 70/3/3 64/3/3 63/3/3
f 70/1/3 63/1/3 69/1/3
f 71/1/3 66/1/3 65/1/3
f 71/3/3 64/3/3 70/3/3
f 71/1/3 65/1/3 64/1/3
f 72/1/3 66/1/3 71/1/3
f 73/1/3 70/1/3 69/1/3
f 73/1/3 69/1/3 68/1/3
f 73/3/3 72/3/3 71/3/3
f 73/1/3 71/1/3 70/1/3
f 74/1/3 66/1/3 72/1/3
f 74/3/3 72/3/3 73/3/3
f 75/3/3 67/3/3 66/3/3
f 75/1/3 66/1/3 74/1/3
f 76/1/3 26/1/3 67/1/3
f 76/3/3 67/3/3 75/3/3
f 77/1/3 74/1/3 73/1/3
f 77/3/3 75/3/3 74/3/3
f 78/1/3 76/1/3 75/1/3
f 78/3/3 75/3/3 77/3/3
f 79/1/3 73/1/3 68/1/3
f 79/1/3 68/1/3 25/1/3
f 79/1/3 78/1/3 77/1/3
f 79/1/3 77/1/3 73/1/3
f 80/1/3 78/1/3 79/1/3
f 81/1/3 78/1/3 80/1/3
f 82/1/3 78/1/3 81/1/3
f 83/1/3 78/1/3 82/1/3
f 84/1/3 78/1/3 83/1/3
f 85/1/3 78/1/3 84/1/3
f 86/1/3 78/1/3 85/1/3
f 87/1/3 76/1/3 78/1/3
f 87/1/3 78/1/3 86/1/3
f 88/1/3 26/1/3 76/1/3
f 88/1/3 76/1/3 87/1/3
f 89/1/3 79/1/3 25/1/3
f 89/3/3 80/3/3 79/3/3
f 90/1/3 81/1/3 80/1/3
f 90/3/3 80/3/3 89/3/3
f 91/3/3 82/3/3 81/3/3
f 91/1/3 81/1/3 90/1/3
f 92/1/3 83/1/3 82/1/3
f 92/3/3 82/3/3 91/3/3
f 93/3/3 84/3/3 83/3/3
f 93/1/3 83/1/3 92/1/3
f 94/1/3 85/1/3 84/1/3
f 94/3/3 84/3/3 93/3/3
f 95/3/3 86/3/3 85/3/3
f 95/1/3 85/1/3 94/1/3
f 96/1/3 87/1/3 86/1/3
f 96/3/3 86/3/3 95/3/3
f 97/3/3 88/3/3 87/3/3
f 97/1/3 87/1/3 96/1/3
f 98/1/3 26/1/3 88/1/3
f 98/3/3 88/3/3 97/3/3
f 99/1/3 89/1/3 25/1/3
f 99/1/3 90/1/3 89/1/3
f 100/3/3 91/3/3 90/3/3
f 100/1/3 90/1/3 99/1/3
f 101/1/3 92/1/3 91/1/3
f 101/3/3 91/3/3 100/3/3
f 102/3/3 93/3/3 92/3/3
f 102/1/3 92/1/3 101/1/3
f 103/1/3 94/1/3 93/1/3
f 103/3/3 93/3/3 102/3/3
f 104/3/3 95/3/3 94/3/3
f 104/1/3 94/1/3 103/1/3
f 105/1/3 96/1/3 95/1/3
f 105/3/3 95/3/3 104/3/3
f 106/3/3 97/3/3 96/3/3
f 106/1/3 96/1/3 105/1/3
f 107/1/3 98/1/3 97/1/3
f 107/3/3 97/3/3 106/3/3
f 108/1/3 26/1/3 98/1/3
f 108/1/3 98/1/3 107/1/3
f 109/1/3 99/1/3 25/1/3
f 109/3/3 100/3/3 99/3/3
f 110/1/3 101/1/3 100/1/3
f 110/3/3 100/3/3 109/3/3
f 111/3/3 102/3/3 101/3/3
f 111/1/3 101/1/3 110/1/3
f 112/1/3 103/1/3 102/1/3
f 112/3/3 102/3/3 111/3/3
f 113/3/3 104/3/3 103/3/3
f 113/1/3 103/1/3 112/1/3
f 114/1/3 105/1/3 104/1/3
f 114/3/3 104/3/3 113/3/3
f 115/3/3 106/3/3 105/3/3
f 115/1/3 105/1/3 114/1/3
f 116/1/3 107/1/3 106/1/3
f 116/3/3 106/3/3 115/3/3
f 117/3/3 108/3/3 107/3/3
f 117/1/3 107/1/3 116/1/3
f 118/1/3 26/1/3 108/1/3
f 118/3/3 108/3/3 117/3/3
f 119/1/3 110/1/3 109/1/3
f 119/1/3 111/1/3 110/1/3
f 119/1/3 118/1/3 117/1/3
f 119/1/3 109/1/3 25/1/3
f 119/1/3 116/1/3 115/1/3
f 119/1/3 117/1/3 116/1/3
f 119/1/3 114/1/3 113/1/3
f 119/1/3 115/1/3 114/1/3
f 119/1/3 112/1/3 111/1/3
f 119/1/3 113/1/3 112/1/3
f 120/1/3 26/1/3 118/1/3
f 120/1/3 118/1/3 119/1/3
f 121/2/4 122/2/4 123/2/4
f 123/2/4 122/2/4 124/2/4
f 123/1/4 124/1/4 125/1/4
f 125/1/4 124/1/4 126/1/4
f 126/1/4 124/1/4 127/1/4
f 127/1/4 124/1/4 128/1/4
f 128/1/4 124/1/4 129/1/4
f 129/1/4 124/1/4 130/1/4
f 130/1/4 124/1/4 131/1/4
f 131/1/4 124/1/4 132/1/4
f 132/1/4 124/1/4 133/1/4
f 133/1/4 124/1/4 134/1/4
f 128/1/4 129/1/4 135/1/4
f 129/3/4 130/3/4 135/3/4
f 130/1/4 131/1/4 136/1/4
f 135/3/4 130/3/4 136/3/4
f 133/3/4 134/3/4 137/3/4
f 132/1/4 133/1/4 137/1/4
f 134/1/4 124/1/4 138/1/4
f 137/3/4 134/3/4 138/3/4
f 128/1/4 135/1/4 139/1/4
f 135/1/4 136/1/4 139/1/4
f 136/1/4 131/1/4 140/1/4
f 139/1/4 136/1/4 140/1/4
f 132/1/4 137/1/4 141/1/4
f 137/1/4 138/1/4 141/1/4
f 138/1/4 124/1/4 142/1/4
f 141/1/4 138/1/4 142/1/4
f 123/1/4 125/1/4 143/1/4
f 125/3/4 126/3/4 143/3/4
f 126/1/4 127/1/4 144/1/4
f 143/3/4 126/3/4 144/3/4
f 123/1/4 143/1/4 145/1/4
f 143/1/4 144/1/4 145/1/4
f 144/1/4 127/1/4 146/1/4
f 145/1/4 144/1/4 146/1/4
f 123/1/4 145/1/4 147/1/4
f 145/3/4 146/3/4 147/3/4
f 146/1/4 127/1/4 148/1/4
f 147/3/4 146/3/4 148/3/4
f 127/3/4 128/3/4 149/3/4
f 148/1/4 127/1/4 149/1/4
f 128/1/4 139/1/4 150/1/4
f 149/3/4 128/3/4 150/3/4
f 139/3/4 140/3/4 151/3/4
f 150/1/4 139/1/4 151/1/4
f 140/1/4 131/1/4 152/1/4
f 151/3/4 140/3/4 152/3/4
f 131/3/4 132/3/4 153/3/4
f 152/1/4 131/1/4 153/1/4
f 132/1/4 141/1/4 154/1/4
f 153/3/4 132/3/4 154/3/4
f 141/3/4 142/3/4 155/3/4
f 154/1/4 141/1/4 155/1/4
f 142/1/4 124/1/4 156/1/4
f 155/3/4 142/3/4 156/3/4
f 154/1/4 155/1/4 157/1/4
f 153/1/4 154/1/4 157/1/4
f 155/1/4 156/1/4 157/1/4
f 149/1/4 150/1/4 157/1/4
f 151/1/4 152/1/4 157/1/4
f 152/1/4 153/1/4 157/1/4
f 148/1/4 149/1/4 157/1/4
f 150/1/4 151/1/4 157/1/4
f 147/1/4 148/1/4 157/1/4
f 157/1/4 156/1/4 158/1/4
f 123/1/4 147/1/4 159/1/4
f 147/1/4 157/1/4 159/1/4
f 159/1/4 157/1/4 160/1/4
f 160/1/4 157/1/4 161/1/4
f 161/1/4 157/1/4 162/1/4
f 157/3/4 158/3/4 163/3/4
f 162/1/4 157/1/4 163/1/4
f 158/1/4 156/1/4 164/1/4
f 163/3/4 158/3/4 164/3/4
f 156/1/4 124/1/4 165/1/4
f 164/1/4 156/1/4 165/1/4
f 123/1/4 159/1/4 166/1/4
f 159/3/4 160/3/4 166/3/4
f 160/1/4 161/1/4 167/1/4
f 166/3/4 160/3/4 167/3/4
f 161/3/4 162/3/4 168/3/4
f 167/1/4 161/1/4 168/1/4
f 163/1/4 164/1/4 169/1/4
f 168/3/4 162/3/4 169/3/4
f 162/1/4 163/1/4 169/1/4
f 169/1/4 164/1/4 170/1/4
f 167/1/4 168/1/4 171/1/4
f 166/1/4 167/1/4 171/1/4
f 169/3/4 170/3/4 171/3/4
f 168/1/4 169/1/4 171/1/4
f 170/1/4 164/1/4 172/1/4
f 171/3/4 170/3/4 172/3/4
f 164/3/4 165/3/4 173/3/4
f 172/1/4 164/1/4 173/1/4
f 165/1/4 124/1/4 174/1/4
f 173/3/4 165/3/4 174/3/4
f 171/1/4 172/1/4 175/1/4
f 172/3/4 173/3/4 175/3/4
f 173/1/4 174/1/4 176/1/4
f 175/3/4 173/3/4 176/3/4
f 166/1/4 171/1/4 177/1/4
f 123/1/4 166/1/4 177/1/4
f 175/1/4 176/1/4 177/1/4
f 171/1/4 175/1/4 177/1/4
f 177/1/4 176/1/4 178/1/4
f 178/1/4 176/1/4 179/1/4
f 179/1/4 176/1/4 180/1/4
f 180/1/4 176/1/4 181/1/4
f 181/1/4 176/1/4 182/1/4
f 182/1/4 176/1/4 183/1/4
f 183/1/4 176/1/4 184/1/4
f 176/1/4 174/1/4 185/1/4
f 184/1/4 176/1/4 185/1/4
f 174/1/4 124/1/4 186/1/4
f 185/1/4 174/1/4 186/1/4
f 123/1/4 177/1/4 187/1/4
f 177/3/4 178/3/4 187/3/4
f 178/1/4 179/1/4 188/1/4
f 187/3/4 178/3/4 188/3/4
f 179/3/4 180/3/4 189/3/4
f 188/1/4 179/1/4 189/1/4
f 180/1/4 181/1/4 190/1/4
f 189/3/4 180/3/4 190/3/4
f 181/3/4 182/3/4 191/3/4
f 190/1/4 181/1/4 191/1/4
f 182/1/4 183/1/4 192/1/4
f 191/3/4 182/3/4 192/3/4
f 183/3/4 184/3/4 193/3/4
f 192/1/4 183/1/4 193/1/4
f 184/1/4 185/1/4 194/1/4
f 193/3/4 184/3/4 194/3/4
f 185/3/4 186/3/4 195/3/4
f 194/1/4 185/1/4 195/1/4
f 186/1/4 124/1/4 196/1/4
f 195/3/4 186/3/4 196/3/4
f 123/1/4 187/1/4 197/1/4
f 187/1/4 188/1/4 197/1/4
f 188/3/4 189/3/4 198/3/4
f 197/1/4 188/1/4 198/1/4
f 189/1/4 190/1/4 199/1/4
f 198/3/4 189/3/4 199/3/4
f 190/3/4 191/3/4 200/3/4
f 199/1/4 190/1/4 200/1/4
f 191/1/4 192/1/4 201/1/4
f 200/3/4 191/3/4 201/3/4
f 192/3/4 193/3/4 202/3/4
f 201/1/4 192/1/4 202/1/4
f 193/1/4 194/1/4 203/1/4
f 202/3/4 193/3/4 203/3/4
f 194/3/4 195/3/4 204/3/4
f 203/1/4 194/1/4 204/1/4
f 195/1/4 196/1/4 205/1/4
f 204/3/4 195/3/4 205/3/4
f 196/1/4 124/1/4 206/1/4
f 205/1/4 196/1/4 206/1/4
f 123/1/4 197/1/4 207/1/4
f 197/3/4 198/3/4 207/3/4
f 198/1/4 199/1/4 208/1/4
f 207/3/4 198/3/4 208/3/4
f 199/3/4 200/3/4 209/3/4
f 208/1/4 199/1/4 209/1/4
f 200/1/4 201/1/4 210/1/4
f 209/3/4 200/3/4 210/3/4
f 201/3/4 202/3/4 211/3/4
f 210/1/4 201/1/4 211/1/4
f 202/1/4 203/1/4 212/1/4
f 211/3/4 202/3/4 212/3/4
f 203/3/4 204/3/4 213/3/4
f 212/1/4 203/1/4 213/1/4
f 204/1/4 205/1/4 214/1/4
f 213/3/4 204/3/4 214/3/4
f 205/3/4 206/3/4 215/3/4
f 214/1/4 205/1/4 215/1/4
f 206/1/4 124/1/4 216/1/4
f 215/3/4 206/3/4 216/3/4
f 121/2/4 123/2/4 217/2/4
f 207/1/4 208/1/4 217/1/4
f 215/1/4 216/1/4 217/1/4
f 123/1/4 207/1/4 217/1/4
f 213/1/4 214/1/4 217/1/4
f 214/1/4 215/1/4 217/1/4
f 211/1/4 212/1/4 217/1/4
f 212/1/4 213/1/4 217/1/4
f 209/1/4 210/1/4 217/1/4
f 210/1/4 211/1/4 217/1/4
f 208/1/4 209/1/4 217/1/4
f 216/1/4 124/1/4 218/1/4
f 217/1/4 216/1/4 218/1/4
f 124/2/4 122/2/4 218/2/4
f 121/2/4 217/2/4 219/2/4
f 217/2/4 218/2/4 219/2/4
f 218/2/4 122/2/4 220/2/4
f 219/2/4 218/2/4 220/2/4
f 223/2/5 222/2/5 221/2/5
f 224/2/5 222/2/5 223/2/5
f 227/2/5 226/2/5 225/2/5
f 228/2/5 226/2/5 227/2/5
f 229/2/6 230/2/6 231/2/6
f 231/2/6 230/2/6 232/2/6
f 233/2/6 234/2/6 235/2/6
f 235/2/6 234/2/6 236/2/6
