# MagicaVoxel @ Ephtracy

# group
o 

# material
mtllib Painel puzzle 2.mtl
usemtl palette

# normals
vn -1 0 0
vn 1 0 0
vn 0 0 1
vn 0 0 -1
vn 0 -1 0
vn 0 1 0

# texcoords
vt 0.669922 0.5
vt 0.673828 0.5
vt 0.962891 0.5
vt 0.970703 0.5
vt 0.978516 0.5
vt 0.994141 0.5

# verts
v -1.3 0 -1.6
v -1.3 0 -2
v -1.3 3.5 -1.5
v -1.3 3.5 -1.6
v -1.3 3.5 -1.7
v -1.3 3.8 -1.5
v -1.3 3.8 -1.7
v -1.3 3.8 -2
v -1.2 0.1 -1.5
v -1.2 0.1 -1.6
v -1.2 0.2 -1.5
v -1.2 0.2 -1.6
v 0.8 0.4 -1.7
v 0.8 0.4 -1.8
v 0.8 0.5 -1.7
v 0.8 0.5 -1.8
v 0.9 3.3 -1.7
v 0.9 3.3 -1.8
v 0.9 3.4 -1.7
v 0.9 3.4 -1.8
v 1 0.5 -1.7
v 1 0.5 -1.8
v 1 0.7 -1.7
v 1 0.7 -1.8
v 1 3.2 -1.7
v 1 3.2 -1.8
v 1 3.3 -1.7
v 1 3.3 -1.8
v 1 3.5 -1.6
v 1 3.5 -1.7
v 1 3.6 -1.5
v 1 3.6 -1.6
v 1 3.6 -1.7
v 1 3.8 -1.5
v 1 3.8 -1.6
v 1.1 0.7 -1.7
v 1.1 0.7 -1.8
v 1.1 0.9 -1.8
v 1.1 3 -1.8
v 1.1 3.2 -1.7
v 1.1 3.2 -1.8
v 1.3 0.1 -1.5
v 1.3 0.1 -1.6
v 1.3 0.2 -1.5
v 1.3 0.2 -1.6
v 1.3 0.2 -1.7
v 1.3 0.3 -1.6
v 1.3 0.3 -1.7
v 1.3 3.4 -1.6
v 1.3 3.4 -1.7
v 1.3 3.5 -1.6
v 1.3 3.5 -1.7
v 1.4 0.2 -1.5
v 1.4 0.2 -1.6
v 1.4 0.3 -1.5
v 1.4 0.3 -1.6
v 1.4 0.3 -1.7
v 1.4 3.4 -1.5
v 1.4 3.4 -1.6
v 1.4 3.4 -1.7
v 1.4 3.6 -1.5
v 1.4 3.6 -1.6
v -1.1 0.3 -1.6
v -1.1 0.3 -1.7
v -1.1 3.4 -1.6
v -1.1 3.4 -1.7
v -1.1 3.5 -1.5
v -1.1 3.5 -1.6
v -1.1 3.6 -1.5
v -1.1 3.6 -1.6
v -1 0.1 -1.5
v -1 0.1 -1.6
v -1 0.2 -1.5
v -1 0.2 -1.6
v -1 0.2 -1.7
v -1 0.3 -1.6
v -1 0.3 -1.7
v -1 3.4 -1.6
v -1 3.4 -1.7
v -1 3.5 -1.6
v -1 3.5 -1.7
v -0.9 3.5 -1.6
v -0.9 3.5 -1.7
v -0.9 3.6 -1.5
v -0.9 3.6 -1.6
v -0.9 3.6 -1.7
v -0.9 3.8 -1.5
v -0.9 3.8 -1.6
v -0.8 1 -1.7
v -0.8 1 -1.8
v -0.8 3.2 -1.7
v -0.8 3.2 -1.8
v -0.7 0.6 -1.7
v -0.7 0.6 -1.8
v -0.7 0.8 -1.8
v -0.7 1 -1.7
v -0.7 1 -1.8
v -0.7 3.2 -1.7
v -0.7 3.2 -1.8
v -0.7 3.3 -1.7
v -0.7 3.3 -1.8
v -0.6 0.5 -1.7
v -0.6 0.5 -1.8
v -0.6 0.6 -1.7
v -0.6 0.6 -1.8
v -0.6 3.3 -1.7
v -0.6 3.3 -1.8
v -0.6 3.4 -1.7
v -0.6 3.4 -1.8
v -0.5 0.4 -1.7
v -0.5 0.4 -1.8
v -0.5 0.5 -1.7
v -0.5 0.5 -1.8
v 1.5 0.1 -1.5
v 1.5 0.1 -1.6
v 1.5 0.3 -1.5
v 1.5 0.3 -1.6
v 1.5 3.4 -1.5
v 1.5 3.4 -1.6
v 1.5 3.8 -1.5
v 1.5 3.8 -1.6
v 1.6 0 -1.6
v 1.6 0 -2
v 1.6 3.8 -1.6
v 1.6 3.8 -2
v -1.3 3.5 -1.5
v -1.3 3.8 -1.5
v -1.2 0.1 -1.5
v -1.2 0.2 -1.5
v -1.1 3.5 -1.5
v -1.1 3.6 -1.5
v -1 0.1 -1.5
v -1 0.2 -1.5
v -0.9 3.6 -1.5
v -0.9 3.8 -1.5
v 1 3.6 -1.5
v 1 3.8 -1.5
v 1.3 0.1 -1.5
v 1.3 0.2 -1.5
v 1.4 0.2 -1.5
v 1.4 0.3 -1.5
v 1.4 3.4 -1.5
v 1.4 3.6 -1.5
v 1.5 0.1 -1.5
v 1.5 0.3 -1.5
v 1.5 3.4 -1.5
v 1.5 3.8 -1.5
v -1.3 0 -1.6
v -1.3 3.5 -1.6
v -1.2 0.1 -1.6
v -1.2 0.2 -1.6
v -1.1 0.3 -1.6
v -1.1 3.4 -1.6
v -1.1 3.5 -1.6
v -1.1 3.6 -1.6
v -1 0.1 -1.6
v -1 0.2 -1.6
v -1 0.3 -1.6
v -1 3.4 -1.6
v -1 3.5 -1.6
v -0.9 3.5 -1.6
v -0.9 3.6 -1.6
v -0.9 3.8 -1.6
v 1 3.5 -1.6
v 1 3.6 -1.6
v 1 3.8 -1.6
v 1.3 0.1 -1.6
v 1.3 0.2 -1.6
v 1.3 0.3 -1.6
v 1.3 3.4 -1.6
v 1.3 3.5 -1.6
v 1.4 0.2 -1.6
v 1.4 0.3 -1.6
v 1.4 3.4 -1.6
v 1.4 3.6 -1.6
v 1.5 0.1 -1.6
v 1.5 0.3 -1.6
v 1.5 3.4 -1.6
v 1.5 3.8 -1.6
v 1.6 0 -1.6
v 1.6 3.8 -1.6
v -1.1 0.3 -1.7
v -1.1 3.4 -1.7
v -1 0.2 -1.7
v -1 0.3 -1.7
v -1 3.4 -1.7
v -1 3.5 -1.7
v -0.9 0.6 -1.7
v -0.9 3.3 -1.7
v -0.9 3.5 -1.7
v -0.9 3.6 -1.7
v -0.8 0.4 -1.7
v -0.8 0.6 -1.7
v -0.8 1 -1.7
v -0.8 3.2 -1.7
v -0.8 3.3 -1.7
v -0.8 3.4 -1.7
v -0.7 0.6 -1.7
v -0.7 1 -1.7
v -0.7 3.2 -1.7
v -0.7 3.3 -1.7
v -0.7 3.4 -1.7
v -0.7 3.5 -1.7
v -0.6 0.5 -1.7
v -0.6 0.6 -1.7
v -0.6 3.3 -1.7
v -0.6 3.4 -1.7
v -0.5 0.4 -1.7
v -0.5 0.5 -1.7
v 0.8 0.4 -1.7
v 0.8 0.5 -1.7
v 0.9 3.3 -1.7
v 0.9 3.4 -1.7
v 1 0.5 -1.7
v 1 0.7 -1.7
v 1 3.2 -1.7
v 1 3.3 -1.7
v 1 3.4 -1.7
v 1 3.5 -1.7
v 1 3.6 -1.7
v 1.1 0.4 -1.7
v 1.1 0.5 -1.7
v 1.1 0.7 -1.7
v 1.1 3.2 -1.7
v 1.1 3.3 -1.7
v 1.1 3.4 -1.7
v 1.2 0.5 -1.7
v 1.2 3.3 -1.7
v 1.3 0.2 -1.7
v 1.3 0.3 -1.7
v 1.3 3.4 -1.7
v 1.3 3.5 -1.7
v 1.4 0.3 -1.7
v 1.4 3.4 -1.7
v -0.8 1 -1.8
v -0.8 3.2 -1.8
v -0.7 0.6 -1.8
v -0.7 0.8 -1.8
v -0.7 1 -1.8
v -0.7 3.2 -1.8
v -0.7 3.3 -1.8
v -0.6 0.5 -1.8
v -0.6 0.6 -1.8
v -0.6 3.2 -1.8
v -0.6 3.3 -1.8
v -0.6 3.4 -1.8
v -0.5 0.4 -1.8
v -0.5 0.5 -1.8
v 0.8 0.4 -1.8
v 0.8 0.5 -1.8
v 0.9 3.2 -1.8
v 0.9 3.3 -1.8
v 0.9 3.4 -1.8
v 1 0.5 -1.8
v 1 0.7 -1.8
v 1 0.8 -1.8
v 1 0.9 -1.8
v 1 3 -1.8
v 1 3.2 -1.8
v 1 3.3 -1.8
v 1.1 0.7 -1.8
v 1.1 0.9 -1.8
v 1.1 3 -1.8
v 1.1 3.2 -1.8
v -1.3 0 -2
v -1.3 3.8 -2
v 1.6 0 -2
v 1.6 3.8 -2
v -1.3 0 -1.6
v 1.6 0 -1.6
v -1.3 0 -2
v 1.6 0 -2
v -1.2 0.1 -1.5
v -1 0.1 -1.5
v 1.3 0.1 -1.5
v 1.5 0.1 -1.5
v -1.2 0.1 -1.6
v -1 0.1 -1.6
v 1.3 0.1 -1.6
v 1.5 0.1 -1.6
v -0.8 3.2 -1.7
v -0.7 3.2 -1.7
v 1 3.2 -1.7
v 1.1 3.2 -1.7
v -0.8 3.2 -1.8
v -0.7 3.2 -1.8
v 1 3.2 -1.8
v 1.1 3.2 -1.8
v -0.7 3.3 -1.7
v -0.6 3.3 -1.7
v 0.9 3.3 -1.7
v 1 3.3 -1.7
v -0.7 3.3 -1.8
v -0.6 3.3 -1.8
v 0.9 3.3 -1.8
v 1 3.3 -1.8
v 1.4 3.4 -1.5
v 1.5 3.4 -1.5
v -1.1 3.4 -1.6
v -1 3.4 -1.6
v 1.3 3.4 -1.6
v 1.4 3.4 -1.6
v 1.5 3.4 -1.6
v -1.1 3.4 -1.7
v -1 3.4 -1.7
v -0.6 3.4 -1.7
v 0.9 3.4 -1.7
v 1.3 3.4 -1.7
v 1.4 3.4 -1.7
v -0.6 3.4 -1.8
v 0.9 3.4 -1.8
v -1.3 3.5 -1.5
v -1.1 3.5 -1.5
v -1.3 3.5 -1.6
v -1.1 3.5 -1.6
v -1 3.5 -1.6
v -0.9 3.5 -1.6
v 1 3.5 -1.6
v 1.3 3.5 -1.6
v -1 3.5 -1.7
v -0.9 3.5 -1.7
v 1 3.5 -1.7
v 1.3 3.5 -1.7
v -1.1 3.6 -1.5
v -0.9 3.6 -1.5
v 1 3.6 -1.5
v 1.4 3.6 -1.5
v -1.1 3.6 -1.6
v -0.9 3.6 -1.6
v 1 3.6 -1.6
v 1.4 3.6 -1.6
v -0.9 3.6 -1.7
v 1 3.6 -1.7
v -1.2 0.2 -1.5
v -1 0.2 -1.5
v 1.3 0.2 -1.5
v 1.4 0.2 -1.5
v -1.2 0.2 -1.6
v -1 0.2 -1.6
v 1.3 0.2 -1.6
v 1.4 0.2 -1.6
v -1 0.2 -1.7
v 1.3 0.2 -1.7
v 1.4 0.3 -1.5
v 1.5 0.3 -1.5
v -1.1 0.3 -1.6
v -1 0.3 -1.6
v 1.3 0.3 -1.6
v 1.4 0.3 -1.6
v 1.5 0.3 -1.6
v -1.1 0.3 -1.7
v -1 0.3 -1.7
v 1.3 0.3 -1.7
v 1.4 0.3 -1.7
v -0.5 0.4 -1.7
v 0.8 0.4 -1.7
v -0.5 0.4 -1.8
v 0.8 0.4 -1.8
v -0.6 0.5 -1.7
v -0.5 0.5 -1.7
v 0.8 0.5 -1.7
v 1 0.5 -1.7
v -0.6 0.5 -1.8
v -0.5 0.5 -1.8
v 0.8 0.5 -1.8
v 1 0.5 -1.8
v -0.7 0.6 -1.7
v -0.6 0.6 -1.7
v -0.7 0.6 -1.8
v -0.6 0.6 -1.8
v 1 0.7 -1.7
v 1.1 0.7 -1.7
v 1 0.7 -1.8
v 1.1 0.7 -1.8
v -0.8 1 -1.7
v -0.7 1 -1.7
v -0.8 1 -1.8
v -0.7 1 -1.8
v -1.3 3.8 -1.5
v -0.9 3.8 -1.5
v 1 3.8 -1.5
v 1.5 3.8 -1.5
v -0.9 3.8 -1.6
v 1 3.8 -1.6
v 1.5 3.8 -1.6
v 1.6 3.8 -1.6
v -1.3 3.8 -1.7
v -0.9 3.8 -1.7
v 1 3.8 -1.7
v 1.5 3.8 -1.7
v -1.3 3.8 -2
v 1.6 3.8 -2

# faces
f 4/6/1 2/6/1 1/6/1
f 5/6/1 2/6/1 4/6/1
f 6/3/1 4/3/1 3/3/1
f 6/3/1 5/3/1 4/3/1
f 7/6/1 2/6/1 5/6/1
f 7/3/1 5/3/1 6/3/1
f 8/6/1 2/6/1 7/6/1
f 11/3/1 10/3/1 9/3/1
f 12/3/1 10/3/1 11/3/1
f 15/3/1 14/3/1 13/3/1
f 16/3/1 14/3/1 15/3/1
f 19/3/1 18/3/1 17/3/1
f 20/3/1 18/3/1 19/3/1
f 23/3/1 22/3/1 21/3/1
f 24/3/1 22/3/1 23/3/1
f 27/3/1 26/3/1 25/3/1
f 28/3/1 26/3/1 27/3/1
f 32/6/1 30/6/1 29/6/1
f 33/6/1 30/6/1 32/6/1
f 34/3/1 32/3/1 31/3/1
f 35/3/1 32/3/1 34/3/1
f 38/3/1 37/3/1 36/3/1
f 39/3/1 38/3/1 36/3/1
f 40/3/1 39/3/1 36/3/1
f 41/3/1 39/3/1 40/3/1
f 44/3/1 43/3/1 42/3/1
f 45/3/1 43/3/1 44/3/1
f 47/6/1 46/6/1 45/6/1
f 48/6/1 46/6/1 47/6/1
f 51/6/1 50/6/1 49/6/1
f 52/6/1 50/6/1 51/6/1
f 55/3/1 54/3/1 53/3/1
f 56/3/1 54/3/1 55/3/1
f 59/6/1 57/6/1 56/6/1
f 60/6/1 57/6/1 59/6/1
f 61/3/1 59/3/1 58/3/1
f 62/3/1 59/3/1 61/3/1
f 63/6/2 64/6/2 65/6/2
f 65/6/2 64/6/2 66/6/2
f 67/3/2 68/3/2 69/3/2
f 69/3/2 68/3/2 70/3/2
f 71/3/2 72/3/2 73/3/2
f 73/3/2 72/3/2 74/3/2
f 74/6/2 75/6/2 76/6/2
f 76/6/2 75/6/2 77/6/2
f 78/6/2 79/6/2 80/6/2
f 80/6/2 79/6/2 81/6/2
f 82/6/2 83/6/2 85/6/2
f 85/6/2 83/6/2 86/6/2
f 84/3/2 85/3/2 87/3/2
f 87/3/2 85/3/2 88/3/2
f 89/3/2 90/3/2 91/3/2
f 91/3/2 90/3/2 92/3/2
f 93/3/2 94/3/2 95/3/2
f 93/3/2 95/3/2 96/3/2
f 96/3/2 95/3/2 97/3/2
f 98/3/2 99/3/2 100/3/2
f 100/3/2 99/3/2 101/3/2
f 102/3/2 103/3/2 104/3/2
f 104/3/2 103/3/2 105/3/2
f 106/3/2 107/3/2 108/3/2
f 108/3/2 107/3/2 109/3/2
f 110/3/2 111/3/2 112/3/2
f 112/3/2 111/3/2 113/3/2
f 114/3/2 115/3/2 116/3/2
f 116/3/2 115/3/2 117/3/2
f 118/3/2 119/3/2 120/3/2
f 120/3/2 119/3/2 121/3/2
f 122/6/2 123/6/2 124/6/2
f 124/6/2 123/6/2 125/6/2
f 130/3/3 127/3/3 126/3/3
f 131/3/3 127/3/3 130/3/3
f 132/3/3 129/3/3 128/3/3
f 133/3/3 129/3/3 132/3/3
f 134/3/3 127/3/3 131/3/3
f 135/3/3 127/3/3 134/3/3
f 140/3/3 139/3/3 138/3/3
f 143/3/3 137/3/3 136/3/3
f 144/3/3 141/3/3 140/3/3
f 144/3/3 140/3/3 138/3/3
f 145/3/3 141/3/3 144/3/3
f 146/3/3 143/3/3 142/3/3
f 147/3/3 137/3/3 143/3/3
f 147/3/3 143/3/3 146/3/3
f 150/6/3 149/6/3 148/6/3
f 151/6/3 149/6/3 150/6/3
f 152/6/3 149/6/3 151/6/3
f 153/6/3 149/6/3 152/6/3
f 154/6/3 149/6/3 153/6/3
f 156/6/3 150/6/3 148/6/3
f 157/6/3 152/6/3 151/6/3
f 158/6/3 152/6/3 157/6/3
f 159/6/3 155/6/3 154/6/3
f 159/6/3 154/6/3 153/6/3
f 160/6/3 155/6/3 159/6/3
f 161/6/3 155/6/3 160/6/3
f 162/6/3 155/6/3 161/6/3
f 165/6/3 163/6/3 162/6/3
f 166/6/3 163/6/3 165/6/3
f 167/6/3 156/6/3 148/6/3
f 167/6/3 157/6/3 156/6/3
f 168/6/3 157/6/3 167/6/3
f 171/6/3 165/6/3 164/6/3
f 172/6/3 169/6/3 168/6/3
f 173/6/3 169/6/3 172/6/3
f 174/6/3 171/6/3 170/6/3
f 175/6/3 165/6/3 171/6/3
f 175/6/3 171/6/3 174/6/3
f 176/6/3 167/6/3 148/6/3
f 177/6/3 174/6/3 173/6/3
f 178/6/3 174/6/3 177/6/3
f 180/6/3 178/6/3 177/6/3
f 180/6/3 179/6/3 178/6/3
f 180/6/3 177/6/3 176/6/3
f 180/6/3 176/6/3 148/6/3
f 181/6/3 179/6/3 180/6/3
f 185/2/3 183/2/3 182/2/3
f 186/2/3 183/2/3 185/2/3
f 188/2/3 185/2/3 184/2/3
f 188/2/3 187/2/3 186/2/3
f 188/2/3 186/2/3 185/2/3
f 189/2/3 187/2/3 188/2/3
f 190/2/3 187/2/3 189/2/3
f 192/2/3 188/2/3 184/2/3
f 193/3/3 189/3/3 188/3/3
f 193/2/3 188/2/3 192/2/3
f 194/3/3 189/3/3 193/3/3
f 195/3/3 189/3/3 194/3/3
f 196/2/3 191/2/3 190/2/3
f 196/3/3 189/3/3 195/3/3
f 196/2/3 190/2/3 189/2/3
f 197/2/3 191/2/3 196/2/3
f 198/3/3 194/3/3 193/3/3
f 198/3/3 193/3/3 192/3/3
f 199/3/3 194/3/3 198/3/3
f 200/3/3 197/3/3 196/3/3
f 200/3/3 196/3/3 195/3/3
f 201/3/3 197/3/3 200/3/3
f 202/2/3 191/2/3 197/2/3
f 202/3/3 197/3/3 201/3/3
f 203/2/3 191/2/3 202/2/3
f 204/3/3 198/3/3 192/3/3
f 205/3/3 198/3/3 204/3/3
f 206/3/3 203/3/3 202/3/3
f 206/3/3 202/3/3 201/3/3
f 207/3/3 203/3/3 206/3/3
f 208/2/3 192/2/3 184/2/3
f 208/3/3 204/3/3 192/3/3
f 209/3/3 204/3/3 208/3/3
f 210/2/3 208/2/3 184/2/3
f 213/3/3 203/3/3 207/3/3
f 214/3/3 211/3/3 210/3/3
f 217/3/3 213/3/3 212/3/3
f 218/3/3 203/3/3 213/3/3
f 218/3/3 213/3/3 217/3/3
f 219/2/3 191/2/3 203/2/3
f 219/3/3 203/3/3 218/3/3
f 220/2/3 191/2/3 219/2/3
f 221/2/3 210/2/3 184/2/3
f 221/3/3 215/3/3 214/3/3
f 221/3/3 214/3/3 210/3/3
f 222/3/3 215/3/3 221/3/3
f 223/3/3 215/3/3 222/3/3
f 224/3/3 218/3/3 217/3/3
f 224/3/3 217/3/3 216/3/3
f 225/3/3 218/3/3 224/3/3
f 226/2/3 219/2/3 218/2/3
f 226/3/3 218/3/3 225/3/3
f 227/3/3 223/3/3 222/3/3
f 227/3/3 225/3/3 224/3/3
f 227/2/3 222/2/3 221/2/3
f 227/3/3 224/3/3 223/3/3
f 228/2/3 226/2/3 225/2/3
f 228/3/3 225/3/3 227/3/3
f 229/2/3 227/2/3 221/2/3
f 229/2/3 221/2/3 184/2/3
f 229/2/3 228/2/3 227/2/3
f 230/2/3 228/2/3 229/2/3
f 231/2/3 219/2/3 226/2/3
f 231/2/3 228/2/3 230/2/3
f 231/2/3 226/2/3 228/2/3
f 232/2/3 219/2/3 231/2/3
f 233/2/3 231/2/3 230/2/3
f 234/2/3 231/2/3 233/2/3
f 239/6/3 236/6/3 235/6/3
f 240/6/3 236/6/3 239/6/3
f 243/5/3 238/5/3 237/5/3
f 244/6/3 241/6/3 240/6/3
f 244/4/3 239/4/3 238/4/3
f 244/4/3 240/4/3 239/4/3
f 245/6/3 241/6/3 244/6/3
f 248/5/3 243/5/3 242/5/3
f 249/5/3 248/5/3 247/5/3
f 250/5/3 243/5/3 248/5/3
f 250/5/3 248/5/3 249/5/3
f 251/4/3 244/4/3 238/4/3
f 251/4/3 245/4/3 244/4/3
f 252/6/3 246/6/3 245/6/3
f 252/4/3 245/4/3 251/4/3
f 253/6/3 246/6/3 252/6/3
f 254/5/3 243/5/3 250/5/3
f 255/5/3 238/5/3 243/5/3
f 255/5/3 243/5/3 254/5/3
f 256/4/3 251/4/3 238/4/3
f 256/5/3 238/5/3 255/5/3
f 257/4/3 251/4/3 256/4/3
f 258/4/3 251/4/3 257/4/3
f 259/6/3 252/6/3 251/6/3
f 259/4/3 251/4/3 258/4/3
f 260/6/3 252/6/3 259/6/3
f 261/5/3 256/5/3 255/5/3
f 261/5/3 257/5/3 256/5/3
f 262/4/3 258/4/3 257/4/3
f 262/5/3 257/5/3 261/5/3
f 263/6/3 259/6/3 258/6/3
f 263/4/3 258/4/3 262/4/3
f 264/6/3 259/6/3 263/6/3
f 265/6/4 266/6/4 267/6/4
f 267/6/4 266/6/4 268/6/4
f 271/6/5 270/6/5 269/6/5
f 272/6/5 270/6/5 271/6/5
f 277/3/5 274/3/5 273/3/5
f 278/3/5 274/3/5 277/3/5
f 279/3/5 276/3/5 275/3/5
f 280/3/5 276/3/5 279/3/5
f 285/3/5 282/3/5 281/3/5
f 286/3/5 282/3/5 285/3/5
f 287/3/5 284/3/5 283/3/5
f 288/3/5 284/3/5 287/3/5
f 293/3/5 290/3/5 289/3/5
f 294/3/5 290/3/5 293/3/5
f 295/3/5 292/3/5 291/3/5
f 296/3/5 292/3/5 295/3/5
f 302/3/5 298/3/5 297/3/5
f 303/3/5 298/3/5 302/3/5
f 304/6/5 300/6/5 299/6/5
f 305/6/5 300/6/5 304/6/5
f 308/6/5 302/6/5 301/6/5
f 309/6/5 302/6/5 308/6/5
f 310/3/5 307/3/5 306/3/5
f 311/3/5 307/3/5 310/3/5
f 314/3/5 313/3/5 312/3/5
f 315/3/5 313/3/5 314/3/5
f 320/6/5 317/6/5 316/6/5
f 321/6/5 317/6/5 320/6/5
f 322/6/5 319/6/5 318/6/5
f 323/6/5 319/6/5 322/6/5
f 328/3/5 325/3/5 324/3/5
f 329/3/5 325/3/5 328/3/5
f 330/3/5 327/3/5 326/3/5
f 331/3/5 327/3/5 330/3/5
f 332/6/5 330/6/5 329/6/5
f 333/6/5 330/6/5 332/6/5
f 334/3/6 335/3/6 338/3/6
f 338/3/6 335/3/6 339/3/6
f 336/3/6 337/3/6 340/3/6
f 340/3/6 337/3/6 341/3/6
f 339/6/6 340/6/6 342/6/6
f 342/6/6 340/6/6 343/6/6
f 344/3/6 345/3/6 349/3/6
f 349/3/6 345/3/6 350/3/6
f 346/6/6 347/6/6 351/6/6
f 351/6/6 347/6/6 352/6/6
f 348/6/6 349/6/6 353/6/6
f 353/6/6 349/6/6 354/6/6
f 355/2/6 356/2/6 357/2/6
f 357/2/6 356/2/6 358/2/6
f 359/3/6 360/3/6 363/3/6
f 363/3/6 360/3/6 364/3/6
f 361/3/6 362/3/6 365/3/6
f 365/3/6 362/3/6 366/3/6
f 367/3/6 368/3/6 369/3/6
f 369/3/6 368/3/6 370/3/6
f 371/3/6 372/3/6 373/3/6
f 373/3/6 372/3/6 374/3/6
f 375/3/6 376/3/6 377/3/6
f 377/3/6 376/3/6 378/3/6
f 379/3/6 380/3/6 383/3/6
f 381/3/6 382/3/6 384/3/6
f 384/3/6 382/3/6 385/3/6
f 379/3/6 383/3/6 387/3/6
f 383/6/6 384/6/6 388/6/6
f 387/3/6 383/3/6 388/3/6
f 384/3/6 385/3/6 389/3/6
f 388/6/6 384/6/6 389/6/6
f 385/6/6 386/6/6 390/6/6
f 389/3/6 385/3/6 390/3/6
f 388/6/6 389/6/6 391/6/6
f 387/6/6 388/6/6 391/6/6
f 389/6/6 390/6/6 391/6/6
f 390/6/6 386/6/6 392/6/6
f 391/6/6 390/6/6 392/6/6
