# MagicaVoxel @ Ephtracy

# group
o 

# material
mtllib camera.mtl
usemtl palette

# normals
vn -1 0 0
vn 1 0 0
vn 0 0 1
vn 0 0 -1
vn 0 -1 0
vn 0 1 0

# texcoords
vt 0.970703 0.5
vt 0.986328 0.5
vt 0.994141 0.5

# verts
v -0.5 2.2 -1.7
v -0.5 2.2 -2
v -0.5 2.8 -1.7
v -0.5 2.8 -2
v -0.4 2.8 -1.7
v -0.4 2.8 -2
v -0.4 2.9 -1.7
v -0.4 2.9 -1.8
v -0.4 2.9 -2
v -0.4 3 -1.7
v -0.4 3 -1.8
v -0.1 2.4 -1.4
v -0.1 2.4 -1.8
v -0.1 2.7 -1.4
v -0.1 2.7 -1.8
v 0 2.3 -1.4
v 0 2.3 -1.8
v 0 2.4 -1.4
v 0 2.4 -1.8
v 0 2.7 -1.4
v 0 2.7 -1.8
v 0 2.8 -1.4
v 0 2.8 -1.8
v 0 2.9 -1.7
v 0 2.9 -1.8
v 0 2.9 -2
v 0 3 -1.7
v 0 3 -2
v 0.3 2.4 -1.4
v 0.3 2.4 -1.5
v 0.3 2.7 -1.4
v 0.3 2.7 -1.5
v -0.3 2.9 -1.7
v -0.3 2.9 -1.8
v -0.3 3 -1.7
v -0.3 3 -1.8
v -0.2 2.2 -1.7
v -0.2 2.2 -1.8
v -0.2 2.9 -1.7
v -0.2 2.9 -1.8
v 0 2.4 -1.4
v 0 2.4 -1.5
v 0 2.7 -1.4
v 0 2.7 -1.5
v 0.3 2.3 -1.4
v 0.3 2.3 -1.8
v 0.3 2.4 -1.4
v 0.3 2.4 -1.8
v 0.3 2.7 -1.4
v 0.3 2.7 -1.8
v 0.3 2.8 -1.4
v 0.3 2.8 -1.8
v 0.3 2.9 -1.7
v 0.3 2.9 -1.8
v 0.3 2.9 -2
v 0.3 3 -1.7
v 0.3 3 -2
v 0.4 2.4 -1.4
v 0.4 2.4 -1.8
v 0.4 2.7 -1.4
v 0.4 2.7 -1.8
v 0.4 2.8 -1.8
v 0.4 2.8 -2
v 0.4 2.9 -1.8
v 0.4 2.9 -2
v 0.5 2.2 -1.8
v 0.5 2.2 -2
v 0.5 2.8 -1.8
v 0.5 2.8 -2
v -0.1 2.4 -1.4
v -0.1 2.7 -1.4
v 0 2.3 -1.4
v 0 2.4 -1.4
v 0 2.7 -1.4
v 0 2.8 -1.4
v 0.3 2.3 -1.4
v 0.3 2.4 -1.4
v 0.3 2.7 -1.4
v 0.3 2.8 -1.4
v 0.4 2.4 -1.4
v 0.4 2.7 -1.4
v 0 2.4 -1.5
v 0 2.7 -1.5
v 0.3 2.4 -1.5
v 0.3 2.7 -1.5
v -0.5 2.2 -1.7
v -0.5 2.8 -1.7
v -0.4 2.8 -1.7
v -0.4 2.9 -1.7
v -0.4 3 -1.7
v -0.3 2.9 -1.7
v -0.3 3 -1.7
v -0.2 2.2 -1.7
v -0.2 2.9 -1.7
v 0 2.9 -1.7
v 0 3 -1.7
v 0.3 2.9 -1.7
v 0.3 3 -1.7
v -0.2 2.2 -1.8
v -0.2 2.9 -1.8
v -0.1 2.4 -1.8
v -0.1 2.7 -1.8
v 0 2.3 -1.8
v 0 2.4 -1.8
v 0 2.7 -1.8
v 0 2.8 -1.8
v 0 2.9 -1.8
v 0.3 2.3 -1.8
v 0.3 2.4 -1.8
v 0.3 2.7 -1.8
v 0.3 2.8 -1.8
v 0.3 2.9 -1.8
v 0.4 2.4 -1.8
v 0.4 2.7 -1.8
v 0.4 2.8 -1.8
v 0.4 2.9 -1.8
v 0.5 2.2 -1.8
v 0.5 2.8 -1.8
v -0.4 2.9 -1.8
v -0.4 3 -1.8
v -0.3 2.9 -1.8
v -0.3 3 -1.8
v -0.5 2.2 -2
v -0.5 2.8 -2
v -0.4 2.8 -2
v -0.4 2.9 -2
v 0 2.9 -2
v 0 3 -2
v 0.3 2.9 -2
v 0.3 3 -2
v 0.4 2.8 -2
v 0.4 2.9 -2
v 0.5 2.2 -2
v 0.5 2.8 -2
v -0.5 2.2 -1.7
v -0.2 2.2 -1.7
v -0.2 2.2 -1.8
v 0.5 2.2 -1.8
v -0.5 2.2 -2
v 0.5 2.2 -2
v 0 2.3 -1.4
v 0.3 2.3 -1.4
v 0 2.3 -1.8
v 0.3 2.3 -1.8
v -0.1 2.4 -1.4
v 0 2.4 -1.4
v 0.3 2.4 -1.4
v 0.4 2.4 -1.4
v -0.1 2.4 -1.8
v 0 2.4 -1.8
v 0.3 2.4 -1.8
v 0.4 2.4 -1.8
v 0 2.7 -1.4
v 0.3 2.7 -1.4
v 0 2.7 -1.5
v 0.3 2.7 -1.5
v 0 2.9 -1.7
v 0.3 2.9 -1.7
v 0 2.9 -1.8
v 0.3 2.9 -1.8
v 0 2.4 -1.4
v 0.3 2.4 -1.4
v 0 2.4 -1.5
v 0.3 2.4 -1.5
v -0.1 2.7 -1.4
v 0 2.7 -1.4
v 0.3 2.7 -1.4
v 0.4 2.7 -1.4
v -0.1 2.7 -1.8
v 0 2.7 -1.8
v 0.3 2.7 -1.8
v 0.4 2.7 -1.8
v 0 2.8 -1.4
v 0.3 2.8 -1.4
v -0.5 2.8 -1.7
v -0.4 2.8 -1.7
v 0 2.8 -1.8
v 0.3 2.8 -1.8
v 0.4 2.8 -1.8
v 0.5 2.8 -1.8
v -0.5 2.8 -2
v -0.4 2.8 -2
v 0.4 2.8 -2
v 0.5 2.8 -2
v -0.3 2.9 -1.7
v -0.2 2.9 -1.7
v -0.4 2.9 -1.8
v -0.3 2.9 -1.8
v -0.2 2.9 -1.8
v 0 2.9 -1.8
v 0.3 2.9 -1.8
v 0.4 2.9 -1.8
v -0.4 2.9 -2
v 0 2.9 -2
v 0.3 2.9 -2
v 0.4 2.9 -2
v -0.4 3 -1.7
v -0.3 3 -1.7
v 0 3 -1.7
v 0.3 3 -1.7
v -0.4 3 -1.8
v -0.3 3 -1.8
v 0 3 -2
v 0.3 3 -2

# faces
f 3/3/1 2/3/1 1/3/1
f 4/3/1 2/3/1 3/3/1
f 7/3/1 6/3/1 5/3/1
f 8/3/1 6/3/1 7/3/1
f 9/3/1 6/3/1 8/3/1
f 10/2/1 8/2/1 7/2/1
f 11/2/1 8/2/1 10/2/1
f 14/3/1 13/3/1 12/3/1
f 15/3/1 13/3/1 14/3/1
f 18/3/1 17/3/1 16/3/1
f 19/3/1 17/3/1 18/3/1
f 22/3/1 21/3/1 20/3/1
f 23/3/1 21/3/1 22/3/1
f 27/3/1 25/3/1 24/3/1
f 27/3/1 26/3/1 25/3/1
f 28/3/1 26/3/1 27/3/1
f 31/3/1 30/3/1 29/3/1
f 32/3/1 30/3/1 31/3/1
f 33/2/2 34/2/2 35/2/2
f 35/2/2 34/2/2 36/2/2
f 37/3/2 38/3/2 39/3/2
f 39/3/2 38/3/2 40/3/2
f 41/3/2 42/3/2 43/3/2
f 43/3/2 42/3/2 44/3/2
f 45/3/2 46/3/2 47/3/2
f 47/3/2 46/3/2 48/3/2
f 49/3/2 50/3/2 51/3/2
f 51/3/2 50/3/2 52/3/2
f 53/3/2 54/3/2 56/3/2
f 54/3/2 55/3/2 56/3/2
f 56/3/2 55/3/2 57/3/2
f 58/3/2 59/3/2 60/3/2
f 60/3/2 59/3/2 61/3/2
f 62/3/2 63/3/2 64/3/2
f 64/3/2 63/3/2 65/3/2
f 66/3/2 67/3/2 68/3/2
f 68/3/2 67/3/2 69/3/2
f 73/3/3 71/3/3 70/3/3
f 74/3/3 71/3/3 73/3/3
f 76/3/3 73/3/3 72/3/3
f 77/3/3 73/3/3 76/3/3
f 78/3/3 75/3/3 74/3/3
f 79/3/3 75/3/3 78/3/3
f 80/3/3 78/3/3 77/3/3
f 81/3/3 78/3/3 80/3/3
f 84/1/3 83/1/3 82/1/3
f 85/1/3 83/1/3 84/1/3
f 88/3/3 87/3/3 86/3/3
f 91/3/3 89/3/3 88/3/3
f 91/2/3 90/2/3 89/2/3
f 92/2/3 90/2/3 91/2/3
f 93/3/3 88/3/3 86/3/3
f 93/3/3 91/3/3 88/3/3
f 94/3/3 91/3/3 93/3/3
f 97/3/3 96/3/3 95/3/3
f 98/3/3 96/3/3 97/3/3
f 101/3/3 100/3/3 99/3/3
f 102/3/3 100/3/3 101/3/3
f 103/3/3 101/3/3 99/3/3
f 104/3/3 101/3/3 103/3/3
f 105/3/3 100/3/3 102/3/3
f 106/3/3 100/3/3 105/3/3
f 107/3/3 100/3/3 106/3/3
f 108/3/3 103/3/3 99/3/3
f 111/3/3 107/3/3 106/3/3
f 112/3/3 107/3/3 111/3/3
f 113/3/3 109/3/3 108/3/3
f 114/3/3 111/3/3 110/3/3
f 114/3/3 112/3/3 111/3/3
f 115/3/3 112/3/3 114/3/3
f 116/3/3 112/3/3 115/3/3
f 117/3/3 108/3/3 99/3/3
f 117/3/3 113/3/3 108/3/3
f 117/3/3 115/3/3 114/3/3
f 117/3/3 114/3/3 113/3/3
f 118/3/3 115/3/3 117/3/3
f 119/2/4 120/2/4 121/2/4
f 121/2/4 120/2/4 122/2/4
f 123/3/4 124/3/4 125/3/4
f 125/3/4 126/3/4 127/3/4
f 125/3/4 127/3/4 129/3/4
f 127/3/4 128/3/4 129/3/4
f 129/3/4 128/3/4 130/3/4
f 123/3/4 125/3/4 131/3/4
f 125/3/4 129/3/4 131/3/4
f 131/3/4 129/3/4 132/3/4
f 123/3/4 131/3/4 133/3/4
f 133/3/4 131/3/4 134/3/4
f 137/3/5 136/3/5 135/3/5
f 139/3/5 137/3/5 135/3/5
f 139/3/5 138/3/5 137/3/5
f 140/3/5 138/3/5 139/3/5
f 143/3/5 142/3/5 141/3/5
f 144/3/5 142/3/5 143/3/5
f 149/3/5 146/3/5 145/3/5
f 150/3/5 146/3/5 149/3/5
f 151/3/5 148/3/5 147/3/5
f 152/3/5 148/3/5 151/3/5
f 155/3/5 154/3/5 153/3/5
f 156/3/5 154/3/5 155/3/5
f 159/3/5 158/3/5 157/3/5
f 160/3/5 158/3/5 159/3/5
f 161/3/6 162/3/6 163/3/6
f 163/3/6 162/3/6 164/3/6
f 165/3/6 166/3/6 169/3/6
f 169/3/6 166/3/6 170/3/6
f 167/3/6 168/3/6 171/3/6
f 171/3/6 168/3/6 172/3/6
f 173/3/6 174/3/6 177/3/6
f 177/3/6 174/3/6 178/3/6
f 175/3/6 176/3/6 181/3/6
f 181/3/6 176/3/6 182/3/6
f 179/3/6 180/3/6 183/3/6
f 183/3/6 180/3/6 184/3/6
f 185/3/6 186/3/6 188/3/6
f 188/3/6 186/3/6 189/3/6
f 187/3/6 188/3/6 193/3/6
f 188/3/6 189/3/6 193/3/6
f 189/3/6 190/3/6 193/3/6
f 193/3/6 190/3/6 194/3/6
f 191/3/6 192/3/6 195/3/6
f 195/3/6 192/3/6 196/3/6
f 197/2/6 198/2/6 201/2/6
f 201/2/6 198/2/6 202/2/6
f 199/3/6 200/3/6 203/3/6
f 203/3/6 200/3/6 204/3/6
