# MagicaVoxel @ Ephtracy

# group
o 

# material
mtllib quadroPuzzle.mtl
usemtl palette

# normals
vn -1 0 0
vn 1 0 0
vn 0 0 1
vn 0 0 -1
vn 0 -1 0
vn 0 1 0

# texcoords
vt 0.958984 0.5
vt 0.974609 0.5
vt 0.990234 0.5

# verts
v -1.2 1.6 -1.8
v -1.2 1.6 -2
v -1.2 3.1 -1.8
v -1.2 3.1 -2
v 1.2 1.7 -1.8
v 1.2 1.7 -1.9
v 1.2 3 -1.8
v 1.2 3 -1.9
v -1.1 1.7 -1.8
v -1.1 1.7 -1.9
v -1.1 3 -1.8
v -1.1 3 -1.9
v 1.3 1.6 -1.8
v 1.3 1.6 -2
v 1.3 3.1 -1.8
v 1.3 3.1 -2
v -1.2 1.6 -1.8
v -1.2 3.1 -1.8
v -1.1 1.7 -1.8
v -1.1 3 -1.8
v 1.2 1.7 -1.8
v 1.2 3 -1.8
v 1.3 1.6 -1.8
v 1.3 3.1 -1.8
v -1.1 1.7 -1.9
v -1.1 3 -1.9
v -0.9 2.2 -1.9
v -0.9 2.6 -1.9
v -0.8 2.3 -1.9
v -0.8 2.5 -1.9
v -0.7 2.2 -1.9
v -0.7 2.3 -1.9
v -0.7 2.5 -1.9
v -0.7 2.6 -1.9
v -0.6 2.3 -1.9
v -0.6 2.5 -1.9
v -0.4 2.2 -1.9
v -0.4 2.6 -1.9
v -0.3 2.3 -1.9
v -0.3 2.6 -1.9
v -0.0999999 2.2 -1.9
v -0.0999999 2.3 -1.9
v 1.19209e-07 2.5 -1.9
v 1.19209e-07 2.6 -1.9
v 0.1 2.2 -1.9
v 0.1 2.5 -1.9
v 0.2 2.2 -1.9
v 0.2 2.5 -1.9
v 0.3 2.5 -1.9
v 0.3 2.6 -1.9
v 0.4 2.2 -1.9
v 0.4 2.3 -1.9
v 0.4 2.4 -1.9
v 0.4 2.5 -1.9
v 0.7 2.2 -1.9
v 0.7 2.3 -1.9
v 0.7 2.4 -1.9
v 0.7 2.5 -1.9
v 0.8 2.4 -1.9
v 0.8 2.5 -1.9
v 0.9 2.2 -1.9
v 0.9 2.4 -1.9
v 0.9 2.5 -1.9
v 0.9 2.6 -1.9
v 1 2.2 -1.9
v 1 2.6 -1.9
v 1.2 1.7 -1.9
v 1.2 3 -1.9
v -1.2 1.6 -2
v -1.2 3.1 -2
v -1.1 1.7 -2
v -1.1 3 -2
v -0.9 2.2 -2
v -0.9 2.6 -2
v -0.8 2.3 -2
v -0.8 2.5 -2
v -0.7 2.2 -2
v -0.7 2.3 -2
v -0.7 2.5 -2
v -0.7 2.6 -2
v -0.6 2.3 -2
v -0.6 2.5 -2
v -0.4 2.2 -2
v -0.4 2.6 -2
v -0.3 2.3 -2
v -0.3 2.6 -2
v -0.0999999 2.2 -2
v -0.0999999 2.3 -2
v 1.19209e-07 2.5 -2
v 1.19209e-07 2.6 -2
v 0.1 2.2 -2
v 0.1 2.5 -2
v 0.2 2.2 -2
v 0.2 2.5 -2
v 0.3 2.5 -2
v 0.3 2.6 -2
v 0.4 2.2 -2
v 0.4 2.3 -2
v 0.4 2.4 -2
v 0.4 2.5 -2
v 0.7 2.2 -2
v 0.7 2.3 -2
v 0.7 2.4 -2
v 0.7 2.5 -2
v 0.8 2.4 -2
v 0.8 2.5 -2
v 0.9 2.2 -2
v 0.9 2.4 -2
v 0.9 2.5 -2
v 0.9 2.6 -2
v 1 2.2 -2
v 1 2.6 -2
v 1.2 1.7 -2
v 1.2 3 -2
v 1.3 1.6 -2
v 1.3 3.1 -2
v -1.2 1.6 -1.8
v 1.3 1.6 -1.8
v -1.2 1.6 -2
v 1.3 1.6 -2
v -1.1 3 -1.8
v 1.2 3 -1.8
v -1.1 3 -1.9
v 1.2 3 -1.9
v -1.1 1.7 -1.8
v 1.2 1.7 -1.8
v -1.1 1.7 -1.9
v 1.2 1.7 -1.9
v -1.2 3.1 -1.8
v 1.3 3.1 -1.8
v -1.2 3.1 -2
v 1.3 3.1 -2

# faces
f 3/2/1 2/2/1 1/2/1
f 4/2/1 2/2/1 3/2/1
f 7/2/1 6/2/1 5/2/1
f 8/2/1 6/2/1 7/2/1
f 9/2/2 10/2/2 11/2/2
f 11/2/2 10/2/2 12/2/2
f 13/2/2 14/2/2 15/2/2
f 15/2/2 14/2/2 16/2/2
f 19/2/3 18/2/3 17/2/3
f 20/2/3 18/2/3 19/2/3
f 21/2/3 19/2/3 17/2/3
f 22/2/3 18/2/3 20/2/3
f 23/2/3 21/2/3 17/2/3
f 23/2/3 22/2/3 21/2/3
f 24/2/3 18/2/3 22/2/3
f 24/2/3 22/2/3 23/2/3
f 27/1/3 26/1/3 25/1/3
f 28/1/3 26/1/3 27/1/3
f 29/3/3 28/3/3 27/3/3
f 30/3/3 28/3/3 29/3/3
f 31/1/3 27/1/3 25/1/3
f 31/3/3 29/3/3 27/3/3
f 32/1/3 30/1/3 29/1/3
f 32/3/3 29/3/3 31/3/3
f 33/3/3 28/3/3 30/3/3
f 33/1/3 30/1/3 32/1/3
f 34/1/3 26/1/3 28/1/3
f 34/3/3 28/3/3 33/3/3
f 35/1/3 32/1/3 31/1/3
f 35/3/3 33/3/3 32/3/3
f 36/1/3 34/1/3 33/1/3
f 36/3/3 33/3/3 35/3/3
f 37/1/3 35/1/3 31/1/3
f 37/1/3 31/1/3 25/1/3
f 37/1/3 36/1/3 35/1/3
f 38/1/3 26/1/3 34/1/3
f 38/1/3 36/1/3 37/1/3
f 38/1/3 34/1/3 36/1/3
f 39/3/3 38/3/3 37/3/3
f 40/1/3 26/1/3 38/1/3
f 40/3/3 38/3/3 39/3/3
f 41/1/3 37/1/3 25/1/3
f 41/3/3 39/3/3 37/3/3
f 42/1/3 40/1/3 39/1/3
f 42/3/3 39/3/3 41/3/3
f 43/1/3 42/1/3 41/1/3
f 43/1/3 40/1/3 42/1/3
f 44/1/3 26/1/3 40/1/3
f 44/1/3 40/1/3 43/1/3
f 45/1/3 43/1/3 41/1/3
f 45/1/3 41/1/3 25/1/3
f 46/3/3 44/3/3 43/3/3
f 46/1/3 43/1/3 45/1/3
f 47/1/3 45/1/3 25/1/3
f 47/3/3 46/3/3 45/3/3
f 48/3/3 44/3/3 46/3/3
f 48/3/3 46/3/3 47/3/3
f 49/1/3 48/1/3 47/1/3
f 49/3/3 44/3/3 48/3/3
f 50/1/3 26/1/3 44/1/3
f 50/3/3 44/3/3 49/3/3
f 51/1/3 49/1/3 47/1/3
f 51/1/3 47/1/3 25/1/3
f 51/1/3 50/1/3 49/1/3
f 52/1/3 50/1/3 51/1/3
f 53/1/3 50/1/3 52/1/3
f 54/1/3 50/1/3 53/1/3
f 55/1/3 51/1/3 25/1/3
f 55/3/3 52/3/3 51/3/3
f 56/1/3 53/1/3 52/1/3
f 56/3/3 52/3/3 55/3/3
f 57/3/3 54/3/3 53/3/3
f 57/1/3 53/1/3 56/1/3
f 58/1/3 50/1/3 54/1/3
f 58/3/3 54/3/3 57/3/3
f 59/1/3 57/1/3 56/1/3
f 59/1/3 56/1/3 55/1/3
f 59/1/3 58/1/3 57/1/3
f 60/1/3 50/1/3 58/1/3
f 60/1/3 58/1/3 59/1/3
f 61/1/3 59/1/3 55/1/3
f 61/1/3 55/1/3 25/1/3
f 62/3/3 60/3/3 59/3/3
f 62/1/3 59/1/3 61/1/3
f 63/1/3 50/1/3 60/1/3
f 63/3/3 60/3/3 62/3/3
f 64/1/3 26/1/3 50/1/3
f 64/1/3 50/1/3 63/1/3
f 65/3/3 63/3/3 62/3/3
f 65/3/3 62/3/3 61/3/3
f 65/3/3 64/3/3 63/3/3
f 65/1/3 61/1/3 25/1/3
f 66/1/3 26/1/3 64/1/3
f 66/3/3 64/3/3 65/3/3
f 67/1/3 65/1/3 25/1/3
f 67/1/3 66/1/3 65/1/3
f 68/1/3 26/1/3 66/1/3
f 68/1/3 66/1/3 67/1/3
f 69/2/4 70/2/4 71/2/4
f 71/2/4 70/2/4 72/2/4
f 71/1/4 72/1/4 73/1/4
f 73/1/4 72/1/4 74/1/4
f 73/3/4 74/3/4 75/3/4
f 75/3/4 74/3/4 76/3/4
f 71/1/4 73/1/4 77/1/4
f 73/3/4 75/3/4 77/3/4
f 75/1/4 76/1/4 78/1/4
f 77/3/4 75/3/4 78/3/4
f 76/3/4 74/3/4 79/3/4
f 78/1/4 76/1/4 79/1/4
f 74/1/4 72/1/4 80/1/4
f 79/3/4 74/3/4 80/3/4
f 77/1/4 78/1/4 81/1/4
f 78/3/4 79/3/4 81/3/4
f 79/1/4 80/1/4 82/1/4
f 81/3/4 79/3/4 82/3/4
f 77/1/4 81/1/4 83/1/4
f 71/1/4 77/1/4 83/1/4
f 81/1/4 82/1/4 83/1/4
f 80/1/4 72/1/4 84/1/4
f 83/1/4 82/1/4 84/1/4
f 82/1/4 80/1/4 84/1/4
f 83/3/4 84/3/4 85/3/4
f 84/1/4 72/1/4 86/1/4
f 85/3/4 84/3/4 86/3/4
f 71/1/4 83/1/4 87/1/4
f 83/3/4 85/3/4 87/3/4
f 85/1/4 86/1/4 88/1/4
f 87/3/4 85/3/4 88/3/4
f 87/1/4 88/1/4 89/1/4
f 88/1/4 86/1/4 89/1/4
f 86/1/4 72/1/4 90/1/4
f 89/1/4 86/1/4 90/1/4
f 87/1/4 89/1/4 91/1/4
f 71/1/4 87/1/4 91/1/4
f 89/3/4 90/3/4 92/3/4
f 91/1/4 89/1/4 92/1/4
f 71/1/4 91/1/4 93/1/4
f 91/3/4 92/3/4 93/3/4
f 92/3/4 90/3/4 94/3/4
f 93/3/4 92/3/4 94/3/4
f 93/1/4 94/1/4 95/1/4
f 94/3/4 90/3/4 95/3/4
f 90/1/4 72/1/4 96/1/4
f 95/3/4 90/3/4 96/3/4
f 93/1/4 95/1/4 97/1/4
f 71/1/4 93/1/4 97/1/4
f 95/1/4 96/1/4 97/1/4
f 97/1/4 96/1/4 98/1/4
f 98/1/4 96/1/4 99/1/4
f 99/1/4 96/1/4 100/1/4
f 71/1/4 97/1/4 101/1/4
f 97/3/4 98/3/4 101/3/4
f 98/1/4 99/1/4 102/1/4
f 101/3/4 98/3/4 102/3/4
f 99/3/4 100/3/4 103/3/4
f 102/1/4 99/1/4 103/1/4
f 100/1/4 96/1/4 104/1/4
f 103/3/4 100/3/4 104/3/4
f 102/1/4 103/1/4 105/1/4
f 101/1/4 102/1/4 105/1/4
f 103/1/4 104/1/4 105/1/4
f 104/1/4 96/1/4 106/1/4
f 105/1/4 104/1/4 106/1/4
f 101/1/4 105/1/4 107/1/4
f 71/1/4 101/1/4 107/1/4
f 105/3/4 106/3/4 108/3/4
f 107/1/4 105/1/4 108/1/4
f 106/1/4 96/1/4 109/1/4
f 108/3/4 106/3/4 109/3/4
f 96/1/4 72/1/4 110/1/4
f 109/1/4 96/1/4 110/1/4
f 108/3/4 109/3/4 111/3/4
f 107/3/4 108/3/4 111/3/4
f 109/3/4 110/3/4 111/3/4
f 71/1/4 107/1/4 111/1/4
f 110/1/4 72/1/4 112/1/4
f 111/3/4 110/3/4 112/3/4
f 69/2/4 71/2/4 113/2/4
f 71/1/4 111/1/4 113/1/4
f 111/1/4 112/1/4 113/1/4
f 112/1/4 72/1/4 114/1/4
f 113/1/4 112/1/4 114/1/4
f 72/2/4 70/2/4 114/2/4
f 69/2/4 113/2/4 115/2/4
f 113/2/4 114/2/4 115/2/4
f 114/2/4 70/2/4 116/2/4
f 115/2/4 114/2/4 116/2/4
f 119/2/5 118/2/5 117/2/5
f 120/2/5 118/2/5 119/2/5
f 123/2/5 122/2/5 121/2/5
f 124/2/5 122/2/5 123/2/5
f 125/2/6 126/2/6 127/2/6
f 127/2/6 126/2/6 128/2/6
f 129/2/6 130/2/6 131/2/6
f 131/2/6 130/2/6 132/2/6
