# MagicaVoxel @ Ephtracy

# group
o 

# material
mtllib cofreFechado.mtl
usemtl palette

# normals
vn -1 0 0
vn 1 0 0
vn 0 0 1
vn 0 0 -1
vn 0 -1 0
vn 0 1 0

# texcoords
vt 0.970703 0.5
vt 0.974609 0.5
vt 0.986328 0.5
vt 0.994141 0.5

# verts
v -1.2 0.8 -0.1
v -1.2 0.8 -2
v -1.2 2.9 -0.1
v -1.2 2.9 -2
v -0.9 1.3 -0.3
v -0.9 1.3 -0.4
v -0.9 2.4 -0.3
v -0.9 2.4 -0.4
v 1.1 0.9 -0.1
v 1.1 0.9 -0.4
v 1.1 2.8 -0.1
v 1.1 2.8 -0.4
v -1.1 0.9 -0.1
v -1.1 0.9 -0.4
v -1.1 2.8 -0.1
v -1.1 2.8 -0.4
v -0.2 1.3 -0.3
v -0.2 1.3 -0.4
v -0.2 2.4 -0.3
v -0.2 2.4 -0.4
v 1.2 0.8 -0.1
v 1.2 0.8 -2
v 1.2 2.9 -0.1
v 1.2 2.9 -2
v -1.2 0.8 -0.1
v -1.2 2.9 -0.1
v -1.1 0.9 -0.1
v -1.1 2.8 -0.1
v 1.1 0.9 -0.1
v 1.1 2.8 -0.1
v 1.2 0.8 -0.1
v 1.2 2.9 -0.1
v -0.9 1.3 -0.3
v -0.9 2.4 -0.3
v -0.8 1.4 -0.3
v -0.8 1.5 -0.3
v -0.8 1.6 -0.3
v -0.8 1.7 -0.3
v -0.8 1.8 -0.3
v -0.8 1.9 -0.3
v -0.8 2 -0.3
v -0.8 2.1 -0.3
v -0.8 2.2 -0.3
v -0.8 2.3 -0.3
v -0.7 1.4 -0.3
v -0.7 1.5 -0.3
v -0.7 1.6 -0.3
v -0.7 1.7 -0.3
v -0.7 1.8 -0.3
v -0.7 1.9 -0.3
v -0.7 2 -0.3
v -0.7 2.1 -0.3
v -0.6 1.4 -0.3
v -0.6 1.5 -0.3
v -0.6 1.6 -0.3
v -0.6 1.7 -0.3
v -0.6 1.8 -0.3
v -0.6 1.9 -0.3
v -0.6 2 -0.3
v -0.6 2.1 -0.3
v -0.5 1.4 -0.3
v -0.5 1.5 -0.3
v -0.5 1.6 -0.3
v -0.5 1.7 -0.3
v -0.5 1.8 -0.3
v -0.5 1.9 -0.3
v -0.5 2 -0.3
v -0.5 2.1 -0.3
v -0.4 1.4 -0.3
v -0.4 1.5 -0.3
v -0.4 1.6 -0.3
v -0.4 1.7 -0.3
v -0.4 1.8 -0.3
v -0.4 1.9 -0.3
v -0.4 2 -0.3
v -0.4 2.1 -0.3
v -0.3 1.4 -0.3
v -0.3 1.5 -0.3
v -0.3 1.6 -0.3
v -0.3 1.7 -0.3
v -0.3 1.8 -0.3
v -0.3 1.9 -0.3
v -0.3 2 -0.3
v -0.3 2.1 -0.3
v -0.3 2.2 -0.3
v -0.3 2.3 -0.3
v -0.2 1.3 -0.3
v -0.2 2.4 -0.3
v -1.1 0.9 -0.4
v -1.1 2.8 -0.4
v -0.9 1.3 -0.4
v -0.9 2.4 -0.4
v -0.2 1.3 -0.4
v -0.2 2.4 -0.4
v 1.1 0.9 -0.4
v 1.1 2.8 -0.4
v -1.2 0.8 -2
v -1.2 2.9 -2
v 1.2 0.8 -2
v 1.2 2.9 -2
v -1.2 0.8 -0.1
v 1.2 0.8 -0.1
v -1.2 0.8 -2
v 1.2 0.8 -2
v -0.9 1.3 -0.3
v -0.2 1.3 -0.3
v -0.9 1.3 -0.4
v -0.2 1.3 -0.4
v -1.1 2.8 -0.1
v 1.1 2.8 -0.1
v -1.1 2.8 -0.4
v 1.1 2.8 -0.4
v -1.1 0.9 -0.1
v 1.1 0.9 -0.1
v -1.1 0.9 -0.4
v 1.1 0.9 -0.4
v -0.9 2.4 -0.3
v -0.2 2.4 -0.3
v -0.9 2.4 -0.4
v -0.2 2.4 -0.4
v -1.2 2.9 -0.1
v 1.2 2.9 -0.1
v -1.2 2.9 -2
v 1.2 2.9 -2

# faces
f 3/3/1 2/3/1 1/3/1
f 4/3/1 2/3/1 3/3/1
f 7/2/1 6/2/1 5/2/1
f 8/2/1 6/2/1 7/2/1
f 11/3/1 10/3/1 9/3/1
f 12/3/1 10/3/1 11/3/1
f 13/3/2 14/3/2 15/3/2
f 15/3/2 14/3/2 16/3/2
f 17/2/2 18/2/2 19/2/2
f 19/2/2 18/2/2 20/2/2
f 21/3/2 22/3/2 23/3/2
f 23/3/2 22/3/2 24/3/2
f 27/3/3 26/3/3 25/3/3
f 28/3/3 26/3/3 27/3/3
f 29/3/3 27/3/3 25/3/3
f 30/3/3 26/3/3 28/3/3
f 31/3/3 29/3/3 25/3/3
f 31/3/3 30/3/3 29/3/3
f 32/3/3 26/3/3 30/3/3
f 32/3/3 30/3/3 31/3/3
f 35/2/3 34/2/3 33/2/3
f 36/2/3 34/2/3 35/2/3
f 37/2/3 34/2/3 36/2/3
f 38/2/3 34/2/3 37/2/3
f 39/2/3 34/2/3 38/2/3
f 40/2/3 34/2/3 39/2/3
f 41/2/3 34/2/3 40/2/3
f 42/2/3 34/2/3 41/2/3
f 43/2/3 34/2/3 42/2/3
f 44/2/3 34/2/3 43/2/3
f 45/2/3 35/2/3 33/2/3
f 45/1/3 36/1/3 35/1/3
f 46/2/3 37/2/3 36/2/3
f 46/1/3 36/1/3 45/1/3
f 47/1/3 38/1/3 37/1/3
f 47/2/3 37/2/3 46/2/3
f 48/2/3 39/2/3 38/2/3
f 48/1/3 38/1/3 47/1/3
f 49/1/3 40/1/3 39/1/3
f 49/2/3 39/2/3 48/2/3
f 50/2/3 41/2/3 40/2/3
f 50/1/3 40/1/3 49/1/3
f 51/1/3 42/1/3 41/1/3
f 51/2/3 41/2/3 50/2/3
f 52/2/3 43/2/3 42/2/3
f 52/1/3 42/1/3 51/1/3
f 53/2/3 45/2/3 33/2/3
f 53/2/3 46/2/3 45/2/3
f 53/2/3 52/2/3 51/2/3
f 53/2/3 51/2/3 50/2/3
f 53/2/3 50/2/3 49/2/3
f 53/2/3 49/2/3 48/2/3
f 53/2/3 48/2/3 47/2/3
f 53/2/3 47/2/3 46/2/3
f 54/2/3 52/2/3 53/2/3
f 55/2/3 52/2/3 54/2/3
f 56/2/3 52/2/3 55/2/3
f 57/2/3 52/2/3 56/2/3
f 58/2/3 52/2/3 57/2/3
f 59/2/3 52/2/3 58/2/3
f 60/2/3 43/2/3 52/2/3
f 60/2/3 52/2/3 59/2/3
f 61/2/3 53/2/3 33/2/3
f 61/1/3 54/1/3 53/1/3
f 62/2/3 55/2/3 54/2/3
f 62/1/3 54/1/3 61/1/3
f 63/1/3 56/1/3 55/1/3
f 63/2/3 55/2/3 62/2/3
f 64/2/3 57/2/3 56/2/3
f 64/1/3 56/1/3 63/1/3
f 65/1/3 58/1/3 57/1/3
f 65/2/3 57/2/3 64/2/3
f 66/2/3 59/2/3 58/2/3
f 66/1/3 58/1/3 65/1/3
f 67/1/3 60/1/3 59/1/3
f 67/2/3 59/2/3 66/2/3
f 68/2/3 43/2/3 60/2/3
f 68/1/3 60/1/3 67/1/3
f 69/2/3 65/2/3 64/2/3
f 69/2/3 67/2/3 66/2/3
f 69/2/3 68/2/3 67/2/3
f 69/2/3 64/2/3 63/2/3
f 69/2/3 63/2/3 62/2/3
f 69/2/3 62/2/3 61/2/3
f 69/2/3 61/2/3 33/2/3
f 69/2/3 66/2/3 65/2/3
f 70/2/3 68/2/3 69/2/3
f 71/2/3 68/2/3 70/2/3
f 72/2/3 68/2/3 71/2/3
f 73/2/3 68/2/3 72/2/3
f 74/2/3 68/2/3 73/2/3
f 75/2/3 68/2/3 74/2/3
f 76/2/3 43/2/3 68/2/3
f 76/2/3 68/2/3 75/2/3
f 77/2/3 69/2/3 33/2/3
f 77/1/3 70/1/3 69/1/3
f 78/2/3 71/2/3 70/2/3
f 78/1/3 70/1/3 77/1/3
f 79/1/3 72/1/3 71/1/3
f 79/2/3 71/2/3 78/2/3
f 80/2/3 73/2/3 72/2/3
f 80/1/3 72/1/3 79/1/3
f 81/1/3 74/1/3 73/1/3
f 81/2/3 73/2/3 80/2/3
f 82/2/3 75/2/3 74/2/3
f 82/1/3 74/1/3 81/1/3
f 83/1/3 76/1/3 75/1/3
f 83/2/3 75/2/3 82/2/3
f 84/2/3 43/2/3 76/2/3
f 84/1/3 76/1/3 83/1/3
f 85/4/3 44/4/3 43/4/3
f 85/2/3 43/2/3 84/2/3
f 86/2/3 34/2/3 44/2/3
f 86/4/3 44/4/3 85/4/3
f 87/2/3 85/2/3 84/2/3
f 87/2/3 84/2/3 83/2/3
f 87/2/3 86/2/3 85/2/3
f 87/2/3 80/2/3 79/2/3
f 87/2/3 79/2/3 78/2/3
f 87/2/3 78/2/3 77/2/3
f 87/2/3 77/2/3 33/2/3
f 87/2/3 82/2/3 81/2/3
f 87/2/3 83/2/3 82/2/3
f 87/2/3 81/2/3 80/2/3
f 88/2/3 34/2/3 86/2/3
f 88/2/3 86/2/3 87/2/3
f 91/3/3 90/3/3 89/3/3
f 92/3/3 90/3/3 91/3/3
f 93/3/3 91/3/3 89/3/3
f 94/3/3 90/3/3 92/3/3
f 95/3/3 93/3/3 89/3/3
f 95/3/3 94/3/3 93/3/3
f 96/3/3 90/3/3 94/3/3
f 96/3/3 94/3/3 95/3/3
f 97/3/4 98/3/4 99/3/4
f 99/3/4 98/3/4 100/3/4
f 103/3/5 102/3/5 101/3/5
f 104/3/5 102/3/5 103/3/5
f 107/2/5 106/2/5 105/2/5
f 108/2/5 106/2/5 107/2/5
f 111/3/5 110/3/5 109/3/5
f 112/3/5 110/3/5 111/3/5
f 113/3/6 114/3/6 115/3/6
f 115/3/6 114/3/6 116/3/6
f 117/2/6 118/2/6 119/2/6
f 119/2/6 118/2/6 120/2/6
f 121/3/6 122/3/6 123/3/6
f 123/3/6 122/3/6 124/3/6
