# MagicaVoxel @ Ephtracy

# group
o 

# material
mtllib prateleira.mtl
usemtl palette

# normals
vn -1 0 0
vn 1 0 0
vn 0 0 1
vn 0 0 -1
vn 0 -1 0
vn 0 1 0

# texcoords
vt 0.369141 0.5
vt 0.994141 0.5

# verts
v -1 2.6 -0.6
v -1 2.6 -1.7
v -1 2.7 -0.6
v -1 2.7 -1.7
v -0.6 2.5 -0.5
v -0.6 2.5 -1.8
v -0.6 2.6 -0.6
v -0.6 2.6 -1.7
v -0.6 2.7 -0.5
v -0.6 2.7 -0.6
v -0.6 2.7 -1.7
v -0.6 3.1 -1.7
v -0.6 3.1 -1.8
v 0.5 2.5 -0.5
v 0.5 2.5 -1.8
v 0.5 2.6 -0.6
v 0.5 2.6 -1.7
v 0.5 2.7 -0.5
v 0.5 2.7 -0.6
v 0.5 2.7 -1.7
v 0.5 3.1 -1.7
v 0.5 3.1 -1.8
v -0.4 2.5 -0.5
v -0.4 2.5 -1.8
v -0.4 2.6 -0.6
v -0.4 2.6 -1.7
v -0.4 2.7 -0.5
v -0.4 2.7 -0.6
v -0.4 2.7 -1.7
v -0.4 3.1 -1.7
v -0.4 3.1 -1.8
v 0.7 2.5 -0.5
v 0.7 2.5 -1.8
v 0.7 2.6 -0.6
v 0.7 2.6 -1.7
v 0.7 2.7 -0.5
v 0.7 2.7 -0.6
v 0.7 2.7 -1.7
v 0.7 3.1 -1.7
v 0.7 3.1 -1.8
v 1.1 2.6 -0.6
v 1.1 2.6 -1.7
v 1.1 2.7 -0.6
v 1.1 2.7 -1.7
v -0.6 2.5 -0.5
v -0.6 2.7 -0.5
v -0.4 2.5 -0.5
v -0.4 2.7 -0.5
v 0.5 2.5 -0.5
v 0.5 2.7 -0.5
v 0.7 2.5 -0.5
v 0.7 2.7 -0.5
v -1 2.6 -0.6
v -1 2.7 -0.6
v -0.6 2.6 -0.6
v -0.6 2.7 -0.6
v -0.4 2.6 -0.6
v -0.4 2.7 -0.6
v 0.5 2.6 -0.6
v 0.5 2.7 -0.6
v 0.7 2.6 -0.6
v 0.7 2.7 -0.6
v 1.1 2.6 -0.6
v 1.1 2.7 -0.6
v -0.6 2.7 -1.7
v -0.6 3.1 -1.7
v -0.4 2.7 -1.7
v -0.4 3.1 -1.7
v 0.5 2.7 -1.7
v 0.5 3.1 -1.7
v 0.7 2.7 -1.7
v 0.7 3.1 -1.7
v -1 2.6 -1.7
v -1 2.7 -1.7
v -0.6 2.6 -1.7
v -0.6 2.7 -1.7
v -0.4 2.6 -1.7
v -0.4 2.7 -1.7
v 0.5 2.6 -1.7
v 0.5 2.7 -1.7
v 0.7 2.6 -1.7
v 0.7 2.7 -1.7
v 1.1 2.6 -1.7
v 1.1 2.7 -1.7
v -0.6 2.5 -1.8
v -0.6 3.1 -1.8
v -0.4 2.5 -1.8
v -0.4 3.1 -1.8
v 0.5 2.5 -1.8
v 0.5 3.1 -1.8
v 0.7 2.5 -1.8
v 0.7 3.1 -1.8
v -0.6 2.5 -0.5
v -0.4 2.5 -0.5
v 0.5 2.5 -0.5
v 0.7 2.5 -0.5
v -0.6 2.5 -1.8
v -0.4 2.5 -1.8
v 0.5 2.5 -1.8
v 0.7 2.5 -1.8
v -1 2.6 -0.6
v -0.6 2.6 -0.6
v -0.4 2.6 -0.6
v 0.5 2.6 -0.6
v 0.7 2.6 -0.6
v 1.1 2.6 -0.6
v -1 2.6 -1.7
v -0.6 2.6 -1.7
v -0.4 2.6 -1.7
v 0.5 2.6 -1.7
v 0.7 2.6 -1.7
v 1.1 2.6 -1.7
v -0.6 2.7 -0.5
v -0.4 2.7 -0.5
v 0.5 2.7 -0.5
v 0.7 2.7 -0.5
v -1 2.7 -0.6
v -0.6 2.7 -0.6
v -0.4 2.7 -0.6
v 0.5 2.7 -0.6
v 0.7 2.7 -0.6
v 1.1 2.7 -0.6
v -1 2.7 -1.7
v -0.6 2.7 -1.7
v -0.4 2.7 -1.7
v 0.5 2.7 -1.7
v 0.7 2.7 -1.7
v 1.1 2.7 -1.7
v -0.6 3.1 -1.7
v -0.4 3.1 -1.7
v 0.5 3.1 -1.7
v 0.7 3.1 -1.7
v -0.6 3.1 -1.8
v -0.4 3.1 -1.8
v 0.5 3.1 -1.8
v 0.7 3.1 -1.8

# faces
f 3/1/1 2/1/1 1/1/1
f 4/1/1 2/1/1 3/1/1
f 7/2/1 6/2/1 5/2/1
f 8/2/1 6/2/1 7/2/1
f 9/2/1 7/2/1 5/2/1
f 10/2/1 7/2/1 9/2/1
f 11/2/1 6/2/1 8/2/1
f 12/2/1 6/2/1 11/2/1
f 13/2/1 6/2/1 12/2/1
f 16/2/1 15/2/1 14/2/1
f 17/2/1 15/2/1 16/2/1
f 18/2/1 16/2/1 14/2/1
f 19/2/1 16/2/1 18/2/1
f 20/2/1 15/2/1 17/2/1
f 21/2/1 15/2/1 20/2/1
f 22/2/1 15/2/1 21/2/1
f 23/2/2 24/2/2 25/2/2
f 25/2/2 24/2/2 26/2/2
f 23/2/2 25/2/2 27/2/2
f 27/2/2 25/2/2 28/2/2
f 26/2/2 24/2/2 29/2/2
f 29/2/2 24/2/2 30/2/2
f 30/2/2 24/2/2 31/2/2
f 32/2/2 33/2/2 34/2/2
f 34/2/2 33/2/2 35/2/2
f 32/2/2 34/2/2 36/2/2
f 36/2/2 34/2/2 37/2/2
f 35/2/2 33/2/2 38/2/2
f 38/2/2 33/2/2 39/2/2
f 39/2/2 33/2/2 40/2/2
f 41/1/2 42/1/2 43/1/2
f 43/1/2 42/1/2 44/1/2
f 47/2/3 46/2/3 45/2/3
f 48/2/3 46/2/3 47/2/3
f 51/2/3 50/2/3 49/2/3
f 52/2/3 50/2/3 51/2/3
f 55/1/3 54/1/3 53/1/3
f 56/1/3 54/1/3 55/1/3
f 59/1/3 58/1/3 57/1/3
f 60/1/3 58/1/3 59/1/3
f 63/1/3 62/1/3 61/1/3
f 64/1/3 62/1/3 63/1/3
f 67/2/3 66/2/3 65/2/3
f 68/2/3 66/2/3 67/2/3
f 71/2/3 70/2/3 69/2/3
f 72/2/3 70/2/3 71/2/3
f 73/1/4 74/1/4 75/1/4
f 75/1/4 74/1/4 76/1/4
f 77/1/4 78/1/4 79/1/4
f 79/1/4 78/1/4 80/1/4
f 81/1/4 82/1/4 83/1/4
f 83/1/4 82/1/4 84/1/4
f 85/2/4 86/2/4 87/2/4
f 87/2/4 86/2/4 88/2/4
f 89/2/4 90/2/4 91/2/4
f 91/2/4 90/2/4 92/2/4
f 97/2/5 94/2/5 93/2/5
f 98/2/5 94/2/5 97/2/5
f 99/2/5 96/2/5 95/2/5
f 100/2/5 96/2/5 99/2/5
f 107/1/5 102/1/5 101/1/5
f 108/1/5 102/1/5 107/1/5
f 109/1/5 104/1/5 103/1/5
f 110/1/5 104/1/5 109/1/5
f 111/1/5 106/1/5 105/1/5
f 112/1/5 106/1/5 111/1/5
f 113/2/6 114/2/6 118/2/6
f 118/2/6 114/2/6 119/2/6
f 115/2/6 116/2/6 120/2/6
f 120/2/6 116/2/6 121/2/6
f 118/1/6 119/1/6 123/1/6
f 121/1/6 122/1/6 123/1/6
f 120/1/6 121/1/6 123/1/6
f 119/1/6 120/1/6 123/1/6
f 117/1/6 118/1/6 123/1/6
f 123/1/6 122/1/6 124/1/6
f 124/1/6 122/1/6 125/1/6
f 125/1/6 122/1/6 126/1/6
f 126/1/6 122/1/6 127/1/6
f 127/1/6 122/1/6 128/1/6
f 129/2/6 130/2/6 133/2/6
f 133/2/6 130/2/6 134/2/6
f 131/2/6 132/2/6 135/2/6
f 135/2/6 132/2/6 136/2/6
